<svg width="150" height="150" viewBox="0 0 150 150" fill="none" xmlns="http://www.w3.org/2000/svg">
<path d="M78.125 37.5L59.375 65.625H71.875V84.375L90.625 56.25H78.125V37.5Z" fill="#8B8B8B"/>
<path fill-rule="evenodd" clip-rule="evenodd" d="M118.469 60.2281C117.52 68.2762 114.285 75.8838 109.147 82.15C106.141 85.8219 98.5 96.3125 96.875 103.125H53.125C51.5 96.3063 43.85 85.8156 40.8438 82.1406C35.7077 75.8715 32.4759 68.2617 31.5313 60.2125C30.5999 52.1805 32.0016 44.0502 35.5688 36.7938C39.1694 29.482 44.7665 23.3389 51.7125 19.075C58.7188 14.7695 66.7828 12.4933 75.0063 12.5C83.25 12.5 91.325 14.7813 98.3 19.0844C105.244 23.3499 110.839 29.494 114.438 36.8063C118.003 44.0643 119.403 52.1957 118.469 60.2281ZM92.4469 96.875H57.55C56.2188 93.8031 54.4406 90.725 52.7844 88.1094C50.605 84.672 48.2346 81.3595 45.6844 78.1875C41.3038 72.8426 38.547 66.3541 37.7406 59.4906C36.9468 52.6505 38.1402 45.7265 41.1781 39.5469C44.2597 33.2942 49.0485 28.0416 54.9906 24.3969C61.0113 20.6984 67.9403 18.7435 75.0063 18.75C82.1 18.75 89.0375 20.7156 95.0219 24.4063C100.962 28.0518 105.748 33.3043 108.828 39.5563C111.865 45.7375 113.056 52.6626 112.259 59.5031C111.45 66.3651 108.691 72.8513 104.309 78.1938C101.758 81.3641 99.3885 84.6767 97.2125 88.1156C95.5563 90.7313 93.7813 93.8031 92.45 96.875H92.4469Z" fill="#8B8B8B"/>
<path d="M53.125 112.5C53.125 111.671 53.4542 110.876 54.0403 110.29C54.6263 109.704 55.4212 109.375 56.25 109.375H93.75C94.5788 109.375 95.3737 109.704 95.9597 110.29C96.5458 110.876 96.875 111.671 96.875 112.5C96.875 113.329 96.5458 114.124 95.9597 114.71C95.3737 115.296 94.5788 115.625 93.75 115.625H56.25C55.4212 115.625 54.6263 115.296 54.0403 114.71C53.4542 114.124 53.125 113.329 53.125 112.5Z" fill="#8B8B8B"/>
<path fill-rule="evenodd" clip-rule="evenodd" d="M53.125 121.875H96.875V131.25C96.875 132.908 96.2165 134.497 95.0444 135.669C93.8723 136.842 92.2826 137.5 90.625 137.5H59.375C57.7174 137.5 56.1277 136.842 54.9556 135.669C53.7835 134.497 53.125 132.908 53.125 131.25V121.875ZM59.375 128.125H90.625V131.25H59.375V128.125Z" fill="#8B8B8B"/>
</svg>
