<svg width="46" height="47" viewBox="0 0 46 47" fill="none" xmlns="http://www.w3.org/2000/svg">
<g filter="url(#filter0_d_4_3)">
<path d="M39.625 0.426392C40.9387 0.426392 42 1.48582 42 2.79219C42 4.09855 40.9387 5.15798 39.625 5.15798V33.5475C40.9387 33.5475 42 34.6047 42 35.9133C42 37.2219 40.9387 38.2791 39.625 38.2791H26.5625V33.5475H19.4375V38.2791H6.375C5.06355 38.2791 4 37.2219 4 35.9133C4 34.6047 5.06355 33.5475 6.375 33.5475V5.15798C5.06355 5.15798 4 4.09855 4 2.79219C4 1.48582 5.06355 0.426392 6.375 0.426392H39.625ZM12.3125 7.52378C11.6594 7.52378 11.125 8.05608 11.125 8.70667V11.0725C11.125 11.7231 11.6594 12.2554 12.3125 12.2554H14.6875C15.3406 12.2554 15.875 11.7231 15.875 11.0725V8.70667C15.875 8.05608 15.3406 7.52378 14.6875 7.52378H12.3125ZM20.625 11.0725C20.625 11.7231 21.1594 12.2554 21.8125 12.2554H24.1875C24.8406 12.2554 25.375 11.7231 25.375 11.0725V8.70667C25.375 8.05608 24.8406 7.52378 24.1875 7.52378H21.8125C21.1594 7.52378 20.625 8.05608 20.625 8.70667V11.0725ZM31.3125 7.52378C30.6594 7.52378 30.125 8.05608 30.125 8.70667V11.0725C30.125 11.7231 30.6594 12.2554 31.3125 12.2554H33.6875C34.3406 12.2554 34.875 11.7231 34.875 11.0725V8.70667C34.875 8.05608 34.3406 7.52378 33.6875 7.52378H31.3125ZM11.125 18.1699C11.125 18.8204 11.6594 19.3527 12.3125 19.3527H14.6875C15.3406 19.3527 15.875 18.8204 15.875 18.1699V15.8041C15.875 15.1535 15.3406 14.6212 14.6875 14.6212H12.3125C11.6594 14.6212 11.125 15.1535 11.125 15.8041V18.1699ZM21.8125 14.6212C21.1594 14.6212 20.625 15.1535 20.625 15.8041V18.1699C20.625 18.8204 21.1594 19.3527 21.8125 19.3527H24.1875C24.8406 19.3527 25.375 18.8204 25.375 18.1699V15.8041C25.375 15.1535 24.8406 14.6212 24.1875 14.6212H21.8125ZM30.125 18.1699C30.125 18.8204 30.6594 19.3527 31.3125 19.3527H33.6875C34.3406 19.3527 34.875 18.8204 34.875 18.1699V15.8041C34.875 15.1535 34.3406 14.6212 33.6875 14.6212H31.3125C30.6594 14.6212 30.125 15.1535 30.125 15.8041V18.1699ZM23 21.7185C19.675 21.7185 16.877 23.9882 16.0309 27.0564C15.8527 28.0101 16.6691 28.8159 17.6562 28.8159H28.3438C29.3309 28.8159 30.1473 28.0101 29.9023 27.0564C29.123 23.9882 26.325 21.7185 23 21.7185Z" fill="#FFE248"/>
</g>
<defs>
<filter id="filter0_d_4_3" x="0" y="0.426392" width="46" height="45.8527" filterUnits="userSpaceOnUse" color-interpolation-filters="sRGB">
<feFlood flood-opacity="0" result="BackgroundImageFix"/>
<feColorMatrix in="SourceAlpha" type="matrix" values="0 0 0 0 0 0 0 0 0 0 0 0 0 0 0 0 0 0 127 0" result="hardAlpha"/>
<feOffset dy="4"/>
<feGaussianBlur stdDeviation="2"/>
<feComposite in2="hardAlpha" operator="out"/>
<feColorMatrix type="matrix" values="0 0 0 0 0 0 0 0 0 0 0 0 0 0 0 0 0 0 0.25 0"/>
<feBlend mode="normal" in2="BackgroundImageFix" result="effect1_dropShadow_4_3"/>
<feBlend mode="normal" in="SourceGraphic" in2="effect1_dropShadow_4_3" result="shape"/>
</filter>
</defs>
</svg>
