<svg width="24" height="34" viewBox="0 0 24 34" fill="none" xmlns="http://www.w3.org/2000/svg">
<path fill-rule="evenodd" clip-rule="evenodd" d="M2.89165 18.9042C3.69332 19.8842 5.73332 23.515 6.16665 25.3333H17.8333C18.2667 23.5167 20.3042 19.8858 21.1058 18.9067C22.4757 17.2356 23.3381 15.2069 23.5908 13.0608C23.8401 10.9189 23.4672 8.75056 22.5167 6.81501C21.5571 4.86508 20.0651 3.22664 18.2133 2.08918C16.3452 0.940162 14.1948 0.332314 12.0017 0.333345C9.80415 0.333345 7.65082 0.941678 5.78999 2.08751C3.93772 3.22454 2.44517 4.8627 1.48499 6.81251C0.533903 8.74732 0.16012 10.9151 0.408321 13.0567C0.657488 15.1958 1.51832 17.2233 2.89165 18.9042ZM12.8333 7.00001L7.83332 14.5H11.1667V19.5L16.1667 12H12.8333V7.00001Z" fill="url(#paint0_linear_4_82)"/>
<path d="M6.16663 27.8333C6.16663 27.6123 6.25442 27.4004 6.4107 27.2441C6.56698 27.0878 6.77895 27 6.99996 27H17C17.221 27 17.4329 27.0878 17.5892 27.2441C17.7455 27.4004 17.8333 27.6123 17.8333 27.8333C17.8333 28.0543 17.7455 28.2663 17.5892 28.4226C17.4329 28.5789 17.221 28.6667 17 28.6667H6.99996C6.77895 28.6667 6.56698 28.5789 6.4107 28.4226C6.25442 28.2663 6.16663 28.0543 6.16663 27.8333ZM17.8333 30.3333H6.16663V32C6.16663 32.442 6.34222 32.866 6.65478 33.1785C6.96734 33.4911 7.39127 33.6667 7.83329 33.6667H16.1666C16.6087 33.6667 17.0326 33.4911 17.3451 33.1785C17.6577 32.866 17.8333 32.442 17.8333 32V30.3333Z" fill="url(#paint1_linear_4_82)"/>
<defs>
<linearGradient id="paint0_linear_4_82" x1="11.9999" y1="0.333344" x2="11.9999" y2="25.3333" gradientUnits="userSpaceOnUse">
<stop/>
<stop offset="1" stop-color="#002992"/>
</linearGradient>
<linearGradient id="paint1_linear_4_82" x1="12" y1="27" x2="12" y2="33.6667" gradientUnits="userSpaceOnUse">
<stop/>
<stop offset="1" stop-color="#002992"/>
</linearGradient>
</defs>
</svg>
