<?xml version="1.0" encoding="UTF-8"?>
<!DOCTYPE svg PUBLIC "-//W3C//DTD SVG 1.1//EN" "http://www.w3.org/Graphics/SVG/1.1/DTD/svg11.dtd">
<svg xmlns="http://www.w3.org/2000/svg" version="1.1" width="1024px" height="1024px" style="shape-rendering:geometricPrecision; text-rendering:geometricPrecision; image-rendering:optimizeQuality; fill-rule:evenodd; clip-rule:evenodd" xmlns:xlink="http://www.w3.org/1999/xlink">
<g><path style="opacity:0.004" fill="#c4c1bc" d="M 1.5,146.5 C 2.83333,147.167 2.83333,147.167 1.5,146.5 Z"/></g>
<g><path style="opacity:0.004" fill="#e5b64c" d="M 639.5,208.5 C 640.833,209.167 640.833,209.167 639.5,208.5 Z"/></g>
<g><path style="opacity:0.004" fill="#deb66e" d="M 661.5,208.5 C 662.833,209.167 662.833,209.167 661.5,208.5 Z"/></g>
<g><path style="opacity:0.004" fill="#e6b652" d="M 650.5,224.5 C 651.833,225.167 651.833,225.167 650.5,224.5 Z"/></g>
<g><path style="opacity:0.016" fill="#e9b848" d="M 634.5,259.5 C 635.833,260.167 635.833,260.167 634.5,259.5 Z"/></g>
<g><path style="opacity:0.016" fill="#e8b045" d="M 525.5,273.5 C 524.833,272.167 524.833,272.167 525.5,273.5 Z"/></g>
<g><path style="opacity:0.008" fill="#ddb450" d="M 277.5,282.5 C 278.833,283.167 278.833,283.167 277.5,282.5 Z"/></g>
<g><path style="opacity:0.016" fill="#e3b54f" d="M 266.5,295.5 C 267.833,296.167 267.833,296.167 266.5,295.5 Z"/></g>
<g><path style="opacity:1" fill="#e7a81e" d="M 691.5,506.5 C 699.827,557.522 689.827,604.855 661.5,648.5C 647.153,668.013 629.986,684.68 610,698.5C 654.664,613.787 649.997,531.787 596,452.5C 561.52,407.247 516.354,378.247 460.5,365.5C 465.386,351.728 471.886,338.728 480,326.5C 493.505,307.488 508.672,289.822 525.5,273.5C 529.833,270.167 534.167,266.833 538.5,263.5C 542.193,262.678 545.693,262.678 549,263.5C 550.079,261.606 551.413,261.273 553,262.5C 554.655,260.253 554.988,257.92 554,255.5C 555.337,256.765 556.837,257.265 558.5,257C 557.577,254.952 558.077,253.119 560,251.5C 560.353,252.672 560.187,253.838 559.5,255C 560.232,256.765 561.565,257.932 563.5,258.5C 564.859,260.306 564.525,261.806 562.5,263C 564.845,263.544 566.179,262.544 566.5,260C 566.095,259.055 565.428,258.388 564.5,258C 565.863,256.055 566.697,253.888 567,251.5C 567.333,252.167 567.667,252.833 568,253.5C 568.5,252.333 569.333,251.5 570.5,251C 569.643,250.311 568.977,249.478 568.5,248.5C 570.987,248.249 573.32,247.749 575.5,247C 575.167,246.667 574.833,246.333 574.5,246C 575.772,244.693 576.772,243.193 577.5,241.5C 581.386,242.588 581.386,243.421 577.5,244C 579.892,247.091 581.726,246.591 583,242.5C 583.423,243.956 584.256,244.456 585.5,244C 584.62,242.644 584.286,241.144 584.5,239.5C 585.822,239.67 586.989,239.337 588,238.5C 588.309,239.766 588.809,240.933 589.5,242C 589.167,242.333 588.833,242.667 588.5,243C 590.333,242.833 592.167,242.667 594,242.5C 594.667,244.5 595.333,246.5 596,248.5C 596.893,247.289 597.726,247.289 598.5,248.5C 598.113,249.72 597.28,250.387 596,250.5C 594.287,249.046 593.12,247.212 592.5,245C 590.866,244.506 589.199,244.34 587.5,244.5C 587.672,246.492 587.005,248.158 585.5,249.5C 587.888,254.159 590.554,258.659 593.5,263C 592.833,264 592.167,265 591.5,266C 594.493,267.246 594.993,269.413 593,272.5C 592.667,272.167 592.333,271.833 592,271.5C 591.576,273.615 590.409,274.448 588.5,274C 589.833,273 589.833,272 588.5,271C 589.5,270.667 590.5,270.333 591.5,270C 589.606,268.921 589.273,267.587 590.5,266C 589.234,265.691 588.067,265.191 587,264.5C 586.484,267.438 585.984,270.105 585.5,272.5C 584.155,271.653 583.155,270.487 582.5,269C 574.341,265.856 574.508,265.022 583,266.5C 583.507,265.004 583.007,263.837 581.5,263C 583.108,262.342 584.275,262.842 585,264.5C 585.249,263.376 585.749,262.376 586.5,261.5C 587.609,262.59 588.609,262.59 589.5,261.5C 587.65,260.758 586.984,259.758 587.5,258.5C 586.522,258.977 585.689,259.643 585,260.5C 583.984,259.366 583.317,259.699 583,261.5C 582.25,260.874 581.416,260.374 580.5,260C 582.898,258.982 585.231,257.815 587.5,256.5C 586.753,256.264 585.92,255.93 585,255.5C 584.667,254.5 584.333,253.5 584,252.5C 581.298,253.641 579.631,252.641 579,249.5C 577.362,250.527 575.529,252.027 573.5,254C 574.167,254.667 574.833,255.333 575.5,256C 573.553,255.464 571.553,255.798 569.5,257C 571.061,257.318 572.228,258.151 573,259.5C 575.239,258.131 577.073,258.631 578.5,261C 576.127,260.638 573.793,261.305 571.5,263C 572.458,264.147 572.125,265.147 570.5,266C 571.449,266.617 572.282,266.451 573,265.5C 572.737,266.951 572.904,268.284 573.5,269.5C 575.434,269.901 576.934,270.901 578,272.5C 578.333,271.833 578.667,271.167 579,270.5C 582.86,271.814 583.193,273.481 580,275.5C 579.147,273.875 578.147,273.542 577,274.5C 576.421,270.614 575.588,270.614 574.5,274.5C 575.167,275.833 575.833,277.167 576.5,278.5C 575.738,278.911 574.738,279.077 573.5,279C 577.016,281.328 579.516,280.494 581,276.5C 581.483,277.448 581.649,278.448 581.5,279.5C 582.873,279.343 584.207,279.51 585.5,280C 585.167,280.333 584.833,280.667 584.5,281C 585.609,281.638 586.775,282.138 588,282.5C 588.161,280.368 589.328,278.368 591.5,276.5C 593.258,277.128 594.758,278.128 596,279.5C 597,279.167 598,278.833 599,278.5C 598.773,280.574 598.939,282.574 599.5,284.5C 598.011,284.533 596.678,285.033 595.5,286C 597.402,286.199 598.902,287.033 600,288.5C 600.436,285.716 601.936,284.55 604.5,285C 603.04,285.811 602.707,286.645 603.5,287.5C 604.814,286.687 605.981,285.687 607,284.5C 616.831,286.387 616.664,288.221 606.5,290C 607.451,290.718 607.617,291.551 607,292.5C 606.223,290.785 604.89,289.785 603,289.5C 600.699,291.122 598.366,292.788 596,294.5C 593.979,292.349 594.479,290.849 597.5,290C 596.216,289.316 595.049,289.483 594,290.5C 593.581,289.328 592.915,288.328 592,287.5C 592.979,289.279 592.646,290.945 591,292.5C 590,291.167 589,291.167 588,292.5C 587.667,291.167 587.333,289.833 587,288.5C 586.29,289.973 585.124,290.64 583.5,290.5C 583.649,291.552 583.483,292.552 583,293.5C 577.087,293.86 576.254,296.36 580.5,301C 579.663,302.011 579.33,303.178 579.5,304.5C 576.538,304.117 575.538,305.117 576.5,307.5C 575.998,308.521 575.332,308.688 574.5,308C 574.063,305.551 574.063,303.217 574.5,301C 572.824,299.823 571.491,298.323 570.5,296.5C 570.167,296.667 569.833,296.833 569.5,297C 569.057,298.518 569.724,299.685 571.5,300.5C 569.711,303.655 568.878,306.988 569,310.5C 570.887,308.974 571.887,306.974 572,304.5C 572.223,308.96 574.39,311.96 578.5,313.5C 576.252,315.225 576.752,316.558 580,317.5C 580.595,316.101 580.428,314.768 579.5,313.5C 579.919,312.328 580.585,311.328 581.5,310.5C 581.623,312.378 581.623,314.211 581.5,316C 583.68,316.749 586.013,317.249 588.5,317.5C 589,318.5 589.5,319.5 590,320.5C 591,320.167 592,319.833 593,319.5C 592.888,321.178 592.388,322.845 591.5,324.5C 591.667,325.167 591.833,325.833 592,326.5C 592.718,325.549 593.551,325.383 594.5,326C 593.667,326.833 592.833,327.667 592,328.5C 590.027,327.123 588.194,325.957 586.5,325C 585.54,326.419 584.707,327.919 584,329.5C 582.869,328.396 582.035,328.729 581.5,330.5C 582.09,331.799 583.09,332.632 584.5,333C 582.789,334.435 581.622,336.269 581,338.5C 580.517,337.552 580.351,336.552 580.5,335.5C 579.5,335.5 578.5,335.5 577.5,335.5C 577.351,336.552 577.517,337.552 578,338.5C 578.333,338.167 578.667,337.833 579,337.5C 581.349,339.744 580.849,340.911 577.5,341C 579.298,342.505 581.132,342.672 583,341.5C 583.448,343.224 584.282,343.891 585.5,343.5C 584.469,344.7 583.635,346.034 583,347.5C 580.609,346.398 580.109,347.064 581.5,349.5C 581.023,350.478 580.357,351.311 579.5,352C 582.468,352.844 584.968,354.344 587,356.5C 588.107,356.415 589.107,356.081 590,355.5C 590.844,357.851 591.511,360.184 592,362.5C 593.487,361.747 593.654,360.914 592.5,360C 594.095,360.617 595.428,360.284 596.5,359C 595.5,358 594.5,357 593.5,356C 596.689,355.019 597.022,353.686 594.5,352C 597.52,348.682 600.02,349.182 602,353.5C 602.451,351.071 603.285,350.904 604.5,353C 604.043,353.414 603.709,353.914 603.5,354.5C 604.785,357.021 605.452,359.687 605.5,362.5C 608.243,363.388 610.91,364.555 613.5,366C 612.975,366.692 612.308,367.192 611.5,367.5C 609.668,366.752 608.001,365.752 606.5,364.5C 605.255,365.955 605.422,367.289 607,368.5C 607.414,368.043 607.914,367.709 608.5,367.5C 610.085,369.087 611.752,369.92 613.5,370C 612.376,370.249 611.376,370.749 610.5,371.5C 610.667,371.833 610.833,372.167 611,372.5C 612.264,372.36 613.431,372.36 614.5,372.5C 613.827,376.035 612.327,376.368 610,373.5C 609.667,374.5 609.333,375.5 609,376.5C 608.71,374.956 608.044,373.623 607,372.5C 607.497,374.198 607.33,375.865 606.5,377.5C 607.737,378.281 608.737,379.281 609.5,380.5C 607.799,380.19 606.132,380.69 604.5,382C 605.99,383.772 607.657,383.939 609.5,382.5C 610.314,380.234 610.814,377.9 611,375.5C 613.969,376.603 614.136,377.936 611.5,379.5C 612.002,380.716 612.335,381.883 612.5,383C 610.109,383.691 610.109,384.691 612.5,386C 611.167,387.84 611.334,388.34 613,387.5C 613.684,388.784 613.517,389.951 612.5,391C 612.833,391.167 613.167,391.333 613.5,391.5C 614.623,387.853 616.957,386.019 620.5,386C 619.833,386.333 619.167,386.667 618.5,387C 621.982,387.813 622.315,389.479 619.5,392C 619.833,392.333 620.167,392.667 620.5,393C 619.256,393.456 618.423,392.956 618,391.5C 617.673,394.464 616.507,396.964 614.5,399C 614.667,399.833 614.833,400.667 615,401.5C 615.667,402.833 616.333,402.833 617,401.5C 617.669,404.028 618.502,404.028 619.5,401.5C 618.91,400.201 617.91,399.368 616.5,399C 618.301,398.683 618.634,398.016 617.5,397C 618.167,396.333 618.833,396.333 619.5,397C 620.423,399.041 620.756,401.208 620.5,403.5C 622.722,402.614 624.888,402.614 627,403.5C 628.434,403.07 629.601,402.236 630.5,401C 628.61,399.127 626.61,398.294 624.5,398.5C 626.022,396.844 625.689,395.677 623.5,395C 625.607,393.736 626.607,391.903 626.5,389.5C 629.999,389.259 630.332,390.092 627.5,392C 629.313,391.954 630.979,392.12 632.5,392.5C 633.386,393.325 633.719,394.325 633.5,395.5C 629.5,395.833 629.5,396.167 633.5,396.5C 633.221,399.118 632.554,401.618 631.5,404C 632.308,404.308 632.975,404.808 633.5,405.5C 629.288,407.722 629.621,408.889 634.5,409C 633.167,410.84 633.334,411.34 635,410.5C 637.167,412 639,413.833 640.5,416C 639.216,416.684 638.049,416.517 637,415.5C 635.086,416.676 635.252,417.676 637.5,418.5C 637,419.5 636.5,420.5 636,421.5C 635.667,421.167 635.333,420.833 635,420.5C 631.35,422.156 630.85,424.322 633.5,427C 632.552,427.483 631.552,427.649 630.5,427.5C 630.238,428.978 630.571,430.311 631.5,431.5C 632.883,428.924 633.717,429.258 634,432.5C 635.493,430.338 637.16,428.338 639,426.5C 640.836,428.131 640.336,428.798 637.5,428.5C 636.862,430.46 636.862,432.293 637.5,434C 636.692,434.308 636.025,434.808 635.5,435.5C 640.637,436.987 640.637,439.32 635.5,442.5C 634.811,440.669 633.644,438.669 632,436.5C 631.395,438.481 630.395,438.815 629,437.5C 629.148,438.825 628.982,439.992 628.5,441C 631.167,442 631.167,443 628.5,444C 629.167,444.333 629.833,444.667 630.5,445C 628.606,446.101 627.939,447.434 628.5,449C 630.345,448.217 632.345,447.884 634.5,448C 635.328,448.915 636.328,449.581 637.5,450C 636.465,451.507 636.632,453.007 638,454.5C 638.999,450.763 640.332,450.763 642,454.5C 642.333,453.167 642.667,451.833 643,450.5C 643.741,449.359 644.575,449.359 645.5,450.5C 647.559,448.155 648.559,448.822 648.5,452.5C 648.096,454.224 647.929,455.891 648,457.5C 648.414,457.043 648.914,456.709 649.5,456.5C 651.115,457.154 652.782,457.654 654.5,458C 653.428,459.284 652.095,459.617 650.5,459C 652.007,459.837 652.507,461.004 652,462.5C 648.209,457.6 644.376,456.767 640.5,460C 641.253,461.487 642.086,461.654 643,460.5C 643.333,461.5 643.667,462.5 644,463.5C 644.508,461.096 645.675,460.429 647.5,461.5C 648.806,462.912 649.64,464.579 650,466.5C 651.063,465.562 652.23,464.562 653.5,463.5C 654.251,464.376 654.751,465.376 655,466.5C 655.219,465.062 655.719,463.729 656.5,462.5C 657.696,462.846 657.696,463.346 656.5,464C 658.693,463.43 660.693,463.764 662.5,465C 660.693,466.236 658.693,466.57 656.5,466C 657.833,467 657.833,468 656.5,469C 658.878,469.974 658.544,470.641 655.5,471C 656.471,472.204 657.471,472.704 658.5,472.5C 657.833,473.5 657.167,474.5 656.5,475.5C 656.723,476.967 657.056,478.467 657.5,480C 656.552,480.483 655.552,480.649 654.5,480.5C 654.34,482.199 654.506,483.866 655,485.5C 656.339,482.906 658.506,481.406 661.5,481C 659.071,480.549 658.904,479.715 661,478.5C 662.188,479.563 662.688,480.897 662.5,482.5C 661.448,482.351 660.448,482.517 659.5,483C 661.058,484.202 662.725,485.368 664.5,486.5C 663.321,488.905 663.321,490.905 664.5,492.5C 665.436,493.974 666.77,494.974 668.5,495.5C 669.583,494.635 669.749,493.635 669,492.5C 667.869,493.604 667.035,493.271 666.5,491.5C 667.582,491.251 668.915,491.085 670.5,491C 672.325,489.534 672.825,487.701 672,485.5C 670.732,488.062 668.898,488.728 666.5,487.5C 667.688,487.693 669.022,487.193 670.5,486C 669.833,485.667 669.167,485.333 668.5,485C 671.032,484.388 671.865,482.888 671,480.5C 670.223,482.701 669.056,482.701 667.5,480.5C 668.5,479.667 669.5,478.833 670.5,478C 669.262,478.077 668.262,477.911 667.5,477.5C 669.737,476.868 671.403,475.535 672.5,473.5C 674.167,474.833 675.833,474.833 677.5,473.5C 678.471,474.962 678.138,476.295 676.5,477.5C 675.676,475.252 674.676,475.086 673.5,477C 674.422,481.106 675.256,485.273 676,489.5C 676.199,487.598 677.033,486.098 678.5,485C 677.833,484.667 677.167,484.333 676.5,484C 677.667,483.5 678.5,482.667 679,481.5C 679.833,482.5 680.667,483.5 681.5,484.5C 682.086,484.291 682.586,483.957 683,483.5C 683.5,485 684,486.5 684.5,488C 683.491,489.168 682.491,490.335 681.5,491.5C 682.025,492.192 682.692,492.692 683.5,493C 681.295,494.427 679.128,494.927 677,494.5C 676.798,496.256 676.298,497.922 675.5,499.5C 674.494,499.062 674.494,498.396 675.5,497.5C 674.066,496.77 672.9,495.77 672,494.5C 670.148,496.23 670.314,497.396 672.5,498C 671.429,499.825 672.096,500.992 674.5,501.5C 676.101,500.835 677.601,500.501 679,500.5C 679.085,502.085 679.251,503.418 679.5,504.5C 684.144,501.496 688.144,502.163 691.5,506.5 Z"/></g>
<g><path style="opacity:1" fill="#e7a81e" d="M 661.5,208.5 C 651.76,218.954 644.26,230.954 639,244.5C 625.829,276.861 622.829,310.194 630,344.5C 632.85,360.265 637.683,375.265 644.5,389.5C 645.702,393.578 647.202,397.578 649,401.5C 664.29,426.415 676.624,452.749 686,480.5C 688.471,489.048 690.304,497.715 691.5,506.5C 688.144,502.163 684.144,501.496 679.5,504.5C 679.251,503.418 679.085,502.085 679,500.5C 677.601,500.501 676.101,500.835 674.5,501.5C 672.096,500.992 671.429,499.825 672.5,498C 670.314,497.396 670.148,496.23 672,494.5C 672.9,495.77 674.066,496.77 675.5,497.5C 674.494,498.396 674.494,499.062 675.5,499.5C 676.298,497.922 676.798,496.256 677,494.5C 679.128,494.927 681.295,494.427 683.5,493C 682.692,492.692 682.025,492.192 681.5,491.5C 682.491,490.335 683.491,489.168 684.5,488C 684,486.5 683.5,485 683,483.5C 682.586,483.957 682.086,484.291 681.5,484.5C 680.667,483.5 679.833,482.5 679,481.5C 678.5,482.667 677.667,483.5 676.5,484C 677.167,484.333 677.833,484.667 678.5,485C 677.033,486.098 676.199,487.598 676,489.5C 675.256,485.273 674.422,481.106 673.5,477C 674.676,475.086 675.676,475.252 676.5,477.5C 678.138,476.295 678.471,474.962 677.5,473.5C 675.833,474.833 674.167,474.833 672.5,473.5C 671.403,475.535 669.737,476.868 667.5,477.5C 668.262,477.911 669.262,478.077 670.5,478C 669.5,478.833 668.5,479.667 667.5,480.5C 669.056,482.701 670.223,482.701 671,480.5C 671.865,482.888 671.032,484.388 668.5,485C 669.167,485.333 669.833,485.667 670.5,486C 669.022,487.193 667.688,487.693 666.5,487.5C 668.898,488.728 670.732,488.062 672,485.5C 672.825,487.701 672.325,489.534 670.5,491C 668.915,491.085 667.582,491.251 666.5,491.5C 667.035,493.271 667.869,493.604 669,492.5C 669.749,493.635 669.583,494.635 668.5,495.5C 666.77,494.974 665.436,493.974 664.5,492.5C 663.321,490.905 663.321,488.905 664.5,486.5C 662.725,485.368 661.058,484.202 659.5,483C 660.448,482.517 661.448,482.351 662.5,482.5C 662.688,480.897 662.188,479.563 661,478.5C 658.904,479.715 659.071,480.549 661.5,481C 658.506,481.406 656.339,482.906 655,485.5C 654.506,483.866 654.34,482.199 654.5,480.5C 655.552,480.649 656.552,480.483 657.5,480C 657.056,478.467 656.723,476.967 656.5,475.5C 657.167,474.5 657.833,473.5 658.5,472.5C 657.471,472.704 656.471,472.204 655.5,471C 658.544,470.641 658.878,469.974 656.5,469C 657.833,468 657.833,467 656.5,466C 658.693,466.57 660.693,466.236 662.5,465C 660.693,463.764 658.693,463.43 656.5,464C 657.696,463.346 657.696,462.846 656.5,462.5C 655.719,463.729 655.219,465.062 655,466.5C 654.751,465.376 654.251,464.376 653.5,463.5C 652.23,464.562 651.063,465.562 650,466.5C 649.64,464.579 648.806,462.912 647.5,461.5C 645.675,460.429 644.508,461.096 644,463.5C 643.667,462.5 643.333,461.5 643,460.5C 642.086,461.654 641.253,461.487 640.5,460C 644.376,456.767 648.209,457.6 652,462.5C 652.507,461.004 652.007,459.837 650.5,459C 652.095,459.617 653.428,459.284 654.5,458C 652.782,457.654 651.115,457.154 649.5,456.5C 648.914,456.709 648.414,457.043 648,457.5C 647.929,455.891 648.096,454.224 648.5,452.5C 648.559,448.822 647.559,448.155 645.5,450.5C 644.575,449.359 643.741,449.359 643,450.5C 642.667,451.833 642.333,453.167 642,454.5C 640.332,450.763 638.999,450.763 638,454.5C 636.632,453.007 636.465,451.507 637.5,450C 636.328,449.581 635.328,448.915 634.5,448C 632.345,447.884 630.345,448.217 628.5,449C 627.939,447.434 628.606,446.101 630.5,445C 629.833,444.667 629.167,444.333 628.5,444C 631.167,443 631.167,442 628.5,441C 628.982,439.992 629.148,438.825 629,437.5C 630.395,438.815 631.395,438.481 632,436.5C 633.644,438.669 634.811,440.669 635.5,442.5C 640.637,439.32 640.637,436.987 635.5,435.5C 636.025,434.808 636.692,434.308 637.5,434C 636.862,432.293 636.862,430.46 637.5,428.5C 640.336,428.798 640.836,428.131 639,426.5C 637.16,428.338 635.493,430.338 634,432.5C 633.717,429.258 632.883,428.924 631.5,431.5C 630.571,430.311 630.238,428.978 630.5,427.5C 631.552,427.649 632.552,427.483 633.5,427C 630.85,424.322 631.35,422.156 635,420.5C 635.333,420.833 635.667,421.167 636,421.5C 636.5,420.5 637,419.5 637.5,418.5C 635.252,417.676 635.086,416.676 637,415.5C 638.049,416.517 639.216,416.684 640.5,416C 639,413.833 637.167,412 635,410.5C 633.334,411.34 633.167,410.84 634.5,409C 629.621,408.889 629.288,407.722 633.5,405.5C 632.975,404.808 632.308,404.308 631.5,404C 632.554,401.618 633.221,399.118 633.5,396.5C 629.5,396.167 629.5,395.833 633.5,395.5C 633.719,394.325 633.386,393.325 632.5,392.5C 630.979,392.12 629.313,391.954 627.5,392C 630.332,390.092 629.999,389.259 626.5,389.5C 626.607,391.903 625.607,393.736 623.5,395C 625.689,395.677 626.022,396.844 624.5,398.5C 626.61,398.294 628.61,399.127 630.5,401C 629.601,402.236 628.434,403.07 627,403.5C 624.888,402.614 622.722,402.614 620.5,403.5C 620.756,401.208 620.423,399.041 619.5,397C 618.833,396.333 618.167,396.333 617.5,397C 618.634,398.016 618.301,398.683 616.5,399C 617.91,399.368 618.91,400.201 619.5,401.5C 618.502,404.028 617.669,404.028 617,401.5C 616.333,402.833 615.667,402.833 615,401.5C 614.833,400.667 614.667,399.833 614.5,399C 616.507,396.964 617.673,394.464 618,391.5C 618.423,392.956 619.256,393.456 620.5,393C 620.167,392.667 619.833,392.333 619.5,392C 622.315,389.479 621.982,387.813 618.5,387C 619.167,386.667 619.833,386.333 620.5,386C 616.957,386.019 614.623,387.853 613.5,391.5C 613.167,391.333 612.833,391.167 612.5,391C 613.517,389.951 613.684,388.784 613,387.5C 611.334,388.34 611.167,387.84 612.5,386C 610.109,384.691 610.109,383.691 612.5,383C 612.335,381.883 612.002,380.716 611.5,379.5C 614.136,377.936 613.969,376.603 611,375.5C 610.814,377.9 610.314,380.234 609.5,382.5C 607.657,383.939 605.99,383.772 604.5,382C 606.132,380.69 607.799,380.19 609.5,380.5C 608.737,379.281 607.737,378.281 606.5,377.5C 607.33,375.865 607.497,374.198 607,372.5C 608.044,373.623 608.71,374.956 609,376.5C 609.333,375.5 609.667,374.5 610,373.5C 612.327,376.368 613.827,376.035 614.5,372.5C 613.431,372.36 612.264,372.36 611,372.5C 610.833,372.167 610.667,371.833 610.5,371.5C 611.376,370.749 612.376,370.249 613.5,370C 611.752,369.92 610.085,369.087 608.5,367.5C 607.914,367.709 607.414,368.043 607,368.5C 605.422,367.289 605.255,365.955 606.5,364.5C 608.001,365.752 609.668,366.752 611.5,367.5C 612.308,367.192 612.975,366.692 613.5,366C 610.91,364.555 608.243,363.388 605.5,362.5C 605.452,359.687 604.785,357.021 603.5,354.5C 603.709,353.914 604.043,353.414 604.5,353C 603.285,350.904 602.451,351.071 602,353.5C 600.02,349.182 597.52,348.682 594.5,352C 597.022,353.686 596.689,355.019 593.5,356C 594.5,357 595.5,358 596.5,359C 595.428,360.284 594.095,360.617 592.5,360C 593.654,360.914 593.487,361.747 592,362.5C 591.511,360.184 590.844,357.851 590,355.5C 589.107,356.081 588.107,356.415 587,356.5C 584.968,354.344 582.468,352.844 579.5,352C 580.357,351.311 581.023,350.478 581.5,349.5C 580.109,347.064 580.609,346.398 583,347.5C 583.635,346.034 584.469,344.7 585.5,343.5C 584.282,343.891 583.448,343.224 583,341.5C 581.132,342.672 579.298,342.505 577.5,341C 580.849,340.911 581.349,339.744 579,337.5C 578.667,337.833 578.333,338.167 578,338.5C 577.517,337.552 577.351,336.552 577.5,335.5C 578.5,335.5 579.5,335.5 580.5,335.5C 580.351,336.552 580.517,337.552 581,338.5C 581.622,336.269 582.789,334.435 584.5,333C 583.09,332.632 582.09,331.799 581.5,330.5C 582.035,328.729 582.869,328.396 584,329.5C 584.707,327.919 585.54,326.419 586.5,325C 588.194,325.957 590.027,327.123 592,328.5C 592.833,327.667 593.667,326.833 594.5,326C 593.551,325.383 592.718,325.549 592,326.5C 591.833,325.833 591.667,325.167 591.5,324.5C 592.388,322.845 592.888,321.178 593,319.5C 592,319.833 591,320.167 590,320.5C 589.5,319.5 589,318.5 588.5,317.5C 586.013,317.249 583.68,316.749 581.5,316C 581.623,314.211 581.623,312.378 581.5,310.5C 580.585,311.328 579.919,312.328 579.5,313.5C 580.428,314.768 580.595,316.101 580,317.5C 576.752,316.558 576.252,315.225 578.5,313.5C 574.39,311.96 572.223,308.96 572,304.5C 571.887,306.974 570.887,308.974 569,310.5C 568.878,306.988 569.711,303.655 571.5,300.5C 569.724,299.685 569.057,298.518 569.5,297C 569.833,296.833 570.167,296.667 570.5,296.5C 571.491,298.323 572.824,299.823 574.5,301C 574.063,303.217 574.063,305.551 574.5,308C 575.332,308.688 575.998,308.521 576.5,307.5C 575.538,305.117 576.538,304.117 579.5,304.5C 579.33,303.178 579.663,302.011 580.5,301C 576.254,296.36 577.087,293.86 583,293.5C 583.483,292.552 583.649,291.552 583.5,290.5C 585.124,290.64 586.29,289.973 587,288.5C 587.333,289.833 587.667,291.167 588,292.5C 589,291.167 590,291.167 591,292.5C 592.646,290.945 592.979,289.279 592,287.5C 592.915,288.328 593.581,289.328 594,290.5C 595.049,289.483 596.216,289.316 597.5,290C 594.479,290.849 593.979,292.349 596,294.5C 598.366,292.788 600.699,291.122 603,289.5C 604.89,289.785 606.223,290.785 607,292.5C 607.617,291.551 607.451,290.718 606.5,290C 616.664,288.221 616.831,286.387 607,284.5C 605.981,285.687 604.814,286.687 603.5,287.5C 602.707,286.645 603.04,285.811 604.5,285C 601.936,284.55 600.436,285.716 600,288.5C 598.902,287.033 597.402,286.199 595.5,286C 596.678,285.033 598.011,284.533 599.5,284.5C 598.939,282.574 598.773,280.574 599,278.5C 598,278.833 597,279.167 596,279.5C 594.758,278.128 593.258,277.128 591.5,276.5C 589.328,278.368 588.161,280.368 588,282.5C 586.775,282.138 585.609,281.638 584.5,281C 584.833,280.667 585.167,280.333 585.5,280C 584.207,279.51 582.873,279.343 581.5,279.5C 581.649,278.448 581.483,277.448 581,276.5C 579.516,280.494 577.016,281.328 573.5,279C 574.738,279.077 575.738,278.911 576.5,278.5C 575.833,277.167 575.167,275.833 574.5,274.5C 575.588,270.614 576.421,270.614 577,274.5C 578.147,273.542 579.147,273.875 580,275.5C 583.193,273.481 582.86,271.814 579,270.5C 578.667,271.167 578.333,271.833 578,272.5C 576.934,270.901 575.434,269.901 573.5,269.5C 572.904,268.284 572.737,266.951 573,265.5C 572.282,266.451 571.449,266.617 570.5,266C 572.125,265.147 572.458,264.147 571.5,263C 573.793,261.305 576.127,260.638 578.5,261C 577.073,258.631 575.239,258.131 573,259.5C 572.228,258.151 571.061,257.318 569.5,257C 571.553,255.798 573.553,255.464 575.5,256C 574.833,255.333 574.167,254.667 573.5,254C 575.529,252.027 577.362,250.527 579,249.5C 579.631,252.641 581.298,253.641 584,252.5C 584.333,253.5 584.667,254.5 585,255.5C 585.92,255.93 586.753,256.264 587.5,256.5C 585.231,257.815 582.898,258.982 580.5,260C 581.416,260.374 582.25,260.874 583,261.5C 583.317,259.699 583.984,259.366 585,260.5C 585.689,259.643 586.522,258.977 587.5,258.5C 586.984,259.758 587.65,260.758 589.5,261.5C 588.609,262.59 587.609,262.59 586.5,261.5C 585.749,262.376 585.249,263.376 585,264.5C 584.275,262.842 583.108,262.342 581.5,263C 583.007,263.837 583.507,265.004 583,266.5C 574.508,265.022 574.341,265.856 582.5,269C 583.155,270.487 584.155,271.653 585.5,272.5C 585.984,270.105 586.484,267.438 587,264.5C 588.067,265.191 589.234,265.691 590.5,266C 589.273,267.587 589.606,268.921 591.5,270C 590.5,270.333 589.5,270.667 588.5,271C 589.833,272 589.833,273 588.5,274C 590.409,274.448 591.576,273.615 592,271.5C 592.333,271.833 592.667,272.167 593,272.5C 594.993,269.413 594.493,267.246 591.5,266C 592.167,265 592.833,264 593.5,263C 590.554,258.659 587.888,254.159 585.5,249.5C 587.005,248.158 587.672,246.492 587.5,244.5C 589.199,244.34 590.866,244.506 592.5,245C 593.12,247.212 594.287,249.046 596,250.5C 597.28,250.387 598.113,249.72 598.5,248.5C 597.726,247.289 596.893,247.289 596,248.5C 595.333,246.5 594.667,244.5 594,242.5C 592.167,242.667 590.333,242.833 588.5,243C 588.833,242.667 589.167,242.333 589.5,242C 588.809,240.933 588.309,239.766 588,238.5C 586.989,239.337 585.822,239.67 584.5,239.5C 584.286,241.144 584.62,242.644 585.5,244C 584.256,244.456 583.423,243.956 583,242.5C 581.726,246.591 579.892,247.091 577.5,244C 581.386,243.421 581.386,242.588 577.5,241.5C 576.772,243.193 575.772,244.693 574.5,246C 574.833,246.333 575.167,246.667 575.5,247C 573.32,247.749 570.987,248.249 568.5,248.5C 568.977,249.478 569.643,250.311 570.5,251C 569.333,251.5 568.5,252.333 568,253.5C 567.667,252.833 567.333,252.167 567,251.5C 566.697,253.888 565.863,256.055 564.5,258C 565.428,258.388 566.095,259.055 566.5,260C 566.179,262.544 564.845,263.544 562.5,263C 564.525,261.806 564.859,260.306 563.5,258.5C 561.565,257.932 560.232,256.765 559.5,255C 560.187,253.838 560.353,252.672 560,251.5C 558.077,253.119 557.577,254.952 558.5,257C 556.837,257.265 555.337,256.765 554,255.5C 554.988,257.92 554.655,260.253 553,262.5C 551.413,261.273 550.079,261.606 549,263.5C 545.693,262.678 542.193,262.678 538.5,263.5C 573.836,233.92 614.336,214.92 660,206.5C 660.717,207.044 661.217,207.711 661.5,208.5 Z"/></g>
<g><path style="opacity:0.004" fill="#e6b74e" d="M 264.5,302.5 C 265.833,303.167 265.833,303.167 264.5,302.5 Z"/></g>
<g><path style="opacity:0.004" fill="#e8b53f" d="M 627.5,313.5 C 628.833,314.167 628.833,314.167 627.5,313.5 Z"/></g>
<g><path style="opacity:0.004" fill="#ebb740" d="M 356.5,356.5 C 357.833,357.167 357.833,357.167 356.5,356.5 Z"/></g>
<g><path style="opacity:0.008" fill="#edb641" d="M 471.5,369.5 C 472.833,370.167 472.833,370.167 471.5,369.5 Z"/></g>
<g><path style="opacity:0.004" fill="#ebb83c" d="M 500.5,380.5 C 501.833,381.167 501.833,381.167 500.5,380.5 Z"/></g>
<g><path style="opacity:0.004" fill="#edb53b" d="M 502.5,380.5 C 503.833,381.167 503.833,381.167 502.5,380.5 Z"/></g>
<g><path style="opacity:0.004" fill="#e9b53d" d="M 644.5,388.5 C 645.833,389.167 645.833,389.167 644.5,388.5 Z"/></g>
<g><path style="opacity:1" fill="#e6a81e" d="M 337.5,346.5 C 365.841,365.499 396.507,379.999 429.5,390C 446.926,394.356 464.259,399.023 481.5,404C 522.888,419.568 556.222,445.402 581.5,481.5C 592.541,497.916 601.208,515.583 607.5,534.5C 575.036,504.539 542.703,474.372 510.5,444C 504.135,440.297 497.468,439.63 490.5,442C 484.013,446.658 478.013,451.824 472.5,457.5C 439.474,488.861 406.474,520.194 373.5,551.5C 368.189,556.883 368.189,562.383 373.5,568C 381.269,569.064 388.935,569.898 396.5,570.5C 396.062,570.435 395.728,570.601 395.5,571C 397.667,571.833 399.167,573.333 400,575.5C 400.167,582.167 400.333,588.833 400.5,595.5C 400.463,602.736 399.796,609.736 398.5,616.5C 380.908,602.576 364.574,587.243 349.5,570.5C 345.576,564.729 341.409,559.063 337,553.5C 336.346,552.304 335.846,552.304 335.5,553.5C 340.556,566.615 346.889,578.948 354.5,590.5C 360.311,600.824 367.145,610.491 375,619.5C 384.728,629.396 394.562,639.063 404.5,648.5C 402.264,647.611 400.264,646.278 398.5,644.5C 397.914,644.709 397.414,645.043 397,645.5C 395.556,643.845 393.722,643.178 391.5,643.5C 391.36,645.124 392.027,646.29 393.5,647C 392.24,649.928 390.073,651.761 387,652.5C 386.667,651.833 386.333,651.167 386,650.5C 384.43,651.358 382.763,652.025 381,652.5C 378.88,651.541 376.713,651.374 374.5,652C 372.871,653.056 371.538,654.556 370.5,656.5C 371.017,654.981 370.35,653.648 368.5,652.5C 369.167,651.833 369.833,651.167 370.5,650.5C 368.494,650.868 366.494,650.368 364.5,649C 365.167,648.667 365.833,648.333 366.5,648C 366.063,645.783 366.063,643.449 366.5,641C 365.159,639.705 363.826,639.205 362.5,639.5C 363.025,638.808 363.692,638.308 364.5,638C 362.888,637.28 361.388,637.446 360,638.5C 359.333,635.833 358.667,635.833 358,638.5C 357.333,637.167 356.667,637.167 356,638.5C 354.322,637.318 354.488,636.152 356.5,635C 356.333,634.5 356.167,634 356,633.5C 354.946,635.754 353.446,636.087 351.5,634.5C 350.289,635.274 350.289,636.107 351.5,637C 350.354,637.645 349.354,638.478 348.5,639.5C 347.618,638.24 346.618,637.074 345.5,636C 346.715,633.904 347.549,634.071 348,636.5C 347.812,634.315 347.646,632.315 347.5,630.5C 349.708,628.237 349.041,626.571 345.5,625.5C 344.311,625.756 343.144,626.089 342,626.5C 339.53,625.722 337.864,624.722 337,623.5C 336.167,623.667 335.333,623.833 334.5,624C 335.28,625.073 335.113,626.24 334,627.5C 333.212,624.833 331.712,622.333 329.5,620C 330.861,618.416 331.528,616.582 331.5,614.5C 333.226,614.815 334.893,614.981 336.5,615C 333.128,613.058 329.462,611.892 325.5,611.5C 323.648,609.143 322.481,606.477 322,603.5C 320.16,604.833 319.66,604.666 320.5,603C 319.874,602.25 319.374,601.416 319,600.5C 318.138,602.087 317.471,603.754 317,605.5C 314.646,604.264 312.646,602.597 311,600.5C 310.755,602.663 309.755,604.33 308,605.5C 307.883,604.05 308.05,602.55 308.5,601C 308.32,598.759 307.487,598.259 306,599.5C 304.798,597.323 304.298,594.989 304.5,592.5C 309.197,592.993 310.363,591.326 308,587.5C 307.047,589.592 305.714,589.925 304,588.5C 303.493,587.004 303.993,585.837 305.5,585C 304.833,584.667 304.167,584.333 303.5,584C 305.167,582.667 306.833,581.333 308.5,580C 308.167,579.667 307.833,579.333 307.5,579C 308.473,576.365 310.14,574.365 312.5,573C 310.083,571.856 309.416,570.19 310.5,568C 308.895,566.64 307.395,565.14 306,563.5C 305.667,563.833 305.333,564.167 305,564.5C 304.316,563.216 304.483,562.049 305.5,561C 304.228,559.693 303.228,558.193 302.5,556.5C 301.575,557.641 300.741,557.641 300,556.5C 299.251,555.365 299.417,554.365 300.5,553.5C 301.396,554.506 302.062,554.506 302.5,553.5C 301.624,552.749 300.624,552.249 299.5,552C 302.126,551.005 304.793,550.672 307.5,551C 303.814,552.199 304.147,552.533 308.5,552C 309.337,550.989 309.67,549.822 309.5,548.5C 311.46,549.138 313.293,549.138 315,548.5C 314.914,546.359 315.081,544.026 315.5,541.5C 314.022,541.762 312.689,541.429 311.5,540.5C 312.629,538.725 313.629,537.058 314.5,535.5C 315.624,536.914 316.624,538.414 317.5,540C 317.36,541.264 317.36,542.431 317.5,543.5C 319.599,540.016 322.099,539.682 325,542.5C 325.617,541.551 325.451,540.718 324.5,540C 328.08,538.504 331.247,539.337 334,542.5C 334.359,539.456 335.026,539.122 336,541.5C 336.197,539.139 337.364,537.472 339.5,536.5C 338.15,534.98 336.817,534.313 335.5,534.5C 336.313,533.186 337.313,532.019 338.5,531C 337.359,529.383 336.526,527.55 336,525.5C 334.601,524.773 333.101,524.273 331.5,524C 332.634,522.984 332.301,522.317 330.5,522C 331.667,521.5 332.5,520.667 333,519.5C 333.333,519.833 333.667,520.167 334,520.5C 333.836,516.85 335.003,516.017 337.5,518C 336.075,519.714 336.408,521.047 338.5,522C 337.233,523.796 337.233,525.629 338.5,527.5C 342.083,528.73 343.249,527.396 342,523.5C 341.282,524.451 340.449,524.617 339.5,524C 340.378,521.151 341.711,518.651 343.5,516.5C 343.918,517.222 344.584,517.722 345.5,518C 343.018,519.594 342.852,521.428 345,523.5C 345.973,519.011 347.307,518.678 349,522.5C 350.512,521.743 351.846,520.743 353,519.5C 354.533,519.944 356.033,520.277 357.5,520.5C 358.167,519.833 358.833,519.167 359.5,518.5C 361.987,518.782 364.653,518.782 367.5,518.5C 367.565,516.304 368.232,514.304 369.5,512.5C 370.478,512.977 371.311,513.643 372,514.5C 373.512,512.043 374.846,512.043 376,514.5C 376.442,512.321 377.442,511.655 379,512.5C 380.588,510.032 382.422,509.866 384.5,512C 383.327,515.11 383.827,515.277 386,512.5C 387.85,514.962 389.017,514.462 389.5,511C 388.66,509.334 389.16,509.167 391,510.5C 392.688,509.675 392.855,508.675 391.5,507.5C 392.167,506.5 392.833,505.5 393.5,504.5C 391.705,504.966 389.705,504.966 387.5,504.5C 388.093,502.618 388.76,500.785 389.5,499C 386.833,498.333 386.833,497.667 389.5,497C 388.833,495.667 388.167,494.333 387.5,493C 388.766,492.691 389.933,492.191 391,491.5C 391.333,492.833 391.667,494.167 392,495.5C 393.667,494.167 395.333,492.833 397,491.5C 397.216,493.384 397.883,495.051 399,496.5C 399.981,493.345 401.315,493.012 403,495.5C 403.595,491.918 404.929,491.584 407,494.5C 409.096,493.285 408.929,492.451 406.5,492C 409.474,490.494 409.807,488.828 407.5,487C 410.877,485.351 411.21,483.351 408.5,481C 409.462,478.406 411.129,476.406 413.5,475C 410.833,473.667 410.833,472.333 413.5,471C 412.672,470.085 411.672,469.419 410.5,469C 411.641,468.259 411.641,467.425 410.5,466.5C 411.852,465.966 413.185,466.466 414.5,468C 414.167,468.333 413.833,468.667 413.5,469C 414.448,469.483 415.448,469.649 416.5,469.5C 416.343,468.127 416.51,466.793 417,465.5C 419.204,467.017 421.538,468.35 424,469.5C 424.5,467.667 425.667,466.5 427.5,466C 424.956,464.225 424.956,462.392 427.5,460.5C 429.413,459.949 431.413,459.782 433.5,460C 430.02,457.897 429.187,455.064 431,451.5C 431.451,453.929 432.285,454.096 433.5,452C 430.756,448.538 431.756,447.038 436.5,447.5C 436.67,446.178 436.337,445.011 435.5,444C 437.246,443.529 438.913,442.862 440.5,442C 438.311,441.323 437.978,440.156 439.5,438.5C 435.454,438.034 435.62,436.7 440,434.5C 440.684,433.216 440.517,432.049 439.5,431C 441.061,430.682 442.228,429.849 443,428.5C 444.365,432.172 446.365,432.506 449,429.5C 449.317,431.301 449.984,431.634 451,430.5C 451.471,432.246 452.138,433.913 453,435.5C 454.147,434.542 455.147,434.875 456,436.5C 456.802,433.275 458.468,430.608 461,428.5C 461.308,429.308 461.808,429.975 462.5,430.5C 464.101,429.835 465.601,429.501 467,429.5C 467.451,431.929 468.285,432.096 469.5,430C 468.549,429.282 468.383,428.449 469,427.5C 472.018,428.177 475.185,428.177 478.5,427.5C 479.275,429.475 480.609,430.309 482.5,430C 479.946,427.602 479.946,425.269 482.5,423C 481.692,422.692 481.025,422.192 480.5,421.5C 481.274,420.289 482.107,420.289 483,421.5C 483.333,420.833 483.667,420.167 484,419.5C 484.684,420.784 484.517,421.951 483.5,423C 485,423.833 486.167,425 487,426.5C 488.258,423.945 490.091,423.278 492.5,424.5C 495.578,421.073 495.078,419.74 491,420.5C 485.933,420.287 484.433,417.954 486.5,413.5C 485.127,413.657 483.793,413.49 482.5,413C 482.833,412.667 483.167,412.333 483.5,412C 482.338,411.173 481.171,410.34 480,409.5C 479.619,410.482 478.786,411.148 477.5,411.5C 475.5,410.167 473.5,408.833 471.5,407.5C 470.626,408.979 469.793,410.979 469,413.5C 467.933,414.191 466.766,414.691 465.5,415C 467.218,415.346 468.885,415.846 470.5,416.5C 471.5,413.833 472.5,413.833 473.5,416.5C 472.835,418.101 472.501,419.601 472.5,421C 468.104,423.896 464.77,422.73 462.5,417.5C 462.704,418.529 462.204,419.529 461,420.5C 460.333,418.833 460.333,417.167 461,415.5C 462.147,416.458 463.147,416.125 464,414.5C 464.773,409.818 464.107,409.485 462,413.5C 461.667,413.167 461.333,412.833 461,412.5C 459.075,413.88 457.241,415.38 455.5,417C 456.167,417.333 456.833,417.667 457.5,418C 455.726,418.881 455.06,420.047 455.5,421.5C 454.833,420.5 454.167,419.5 453.5,418.5C 452.391,419.59 451.391,419.59 450.5,418.5C 451.025,417.808 451.692,417.308 452.5,417C 451.651,415.23 449.985,413.563 447.5,412C 449.991,411.374 449.991,410.541 447.5,409.5C 448.086,406.134 447.086,405.8 444.5,408.5C 445.167,408.833 445.833,409.167 446.5,409.5C 442.66,410.86 442.66,412.36 446.5,414C 445.338,414.827 444.171,415.66 443,416.5C 442.454,415.711 441.787,414.711 441,413.5C 440.28,415.112 440.446,416.612 441.5,418C 440.241,418.923 438.908,419.757 437.5,420.5C 438.219,425.118 436.886,425.618 433.5,422C 434.715,419.904 435.549,420.071 436,422.5C 436.865,420.112 436.032,418.612 433.5,418C 435.305,416.559 437.305,416.392 439.5,417.5C 439.657,416.127 439.49,414.793 439,413.5C 437.69,410.527 435.69,408.193 433,406.5C 431.881,407.552 431.381,408.719 431.5,410C 430.451,410.492 429.451,410.326 428.5,409.5C 426.054,410.983 426.388,412.149 429.5,413C 427.939,413.318 426.772,414.151 426,415.5C 425.751,414.376 425.251,413.376 424.5,412.5C 424.704,413.529 424.204,414.529 423,415.5C 422.647,411.883 421.814,408.383 420.5,405C 421.423,401.744 420.756,401.244 418.5,403.5C 416.299,401.944 416.299,400.777 418.5,400C 417.428,398.716 416.095,398.383 414.5,399C 416.735,397.006 418.901,397.172 421,399.5C 422.543,398.423 422.543,397.089 421,395.5C 418.789,395.377 416.622,395.377 414.5,395.5C 413.269,394.349 413.269,393.183 414.5,392C 413,389.833 411.833,390 411,392.5C 410.309,390.109 409.309,390.109 408,392.5C 405.904,391.285 406.071,390.451 408.5,390C 405.724,388.221 406.057,387.221 409.5,387C 408.751,385.258 407.084,383.758 404.5,382.5C 402.826,385.254 401.159,385.587 399.5,383.5C 398.284,384.002 397.117,384.335 396,384.5C 395.333,383.833 394.667,383.167 394,382.5C 392.204,383.767 390.371,383.767 388.5,382.5C 385.829,384.491 382.996,384.491 380,382.5C 379.097,383.701 377.931,384.535 376.5,385C 378.762,385.642 380.929,386.475 383,387.5C 383.333,387.167 383.667,386.833 384,386.5C 386.359,389.124 386.025,389.791 383,388.5C 382.727,390.101 382.227,391.601 381.5,393C 382.549,393.492 383.549,393.326 384.5,392.5C 385.251,393.376 385.751,394.376 386,395.5C 387.333,393.5 388.667,391.5 390,389.5C 391.115,392.27 392.615,394.77 394.5,397C 393.234,397.309 392.067,397.809 391,398.5C 389.853,397.542 388.853,397.875 388,399.5C 387.667,399.167 387.333,398.833 387,398.5C 384.957,400.967 382.79,400.967 380.5,398.5C 379.158,399.902 378.324,399.569 378,397.5C 377.667,398.167 377.333,398.833 377,399.5C 375.581,398.54 374.081,397.707 372.5,397C 375.187,392.769 374.853,388.436 371.5,384C 374.149,382.369 375.816,380.035 376.5,377C 374.837,376.735 373.337,377.235 372,378.5C 371.383,377.551 371.549,376.718 372.5,376C 370.546,376.453 368.713,376.62 367,376.5C 365.992,374.741 364.492,373.574 362.5,373C 363.991,370.379 364.658,367.545 364.5,364.5C 361.763,365.213 359.096,365.213 356.5,364.5C 356.167,365.167 355.833,365.833 355.5,366.5C 353.935,361.296 352.601,361.296 351.5,366.5C 348.074,366.65 347.741,365.484 350.5,363C 349.833,362.333 349.167,362.333 348.5,363C 347.689,365.621 346.355,367.955 344.5,370C 345.517,371.049 345.684,372.216 345,373.5C 343.933,372.809 342.766,372.309 341.5,372C 343.301,371.683 343.634,371.016 342.5,370C 343.638,368.266 344.138,366.432 344,364.5C 342.125,365.209 339.958,365.209 337.5,364.5C 338.188,362.282 337.188,360.782 334.5,360C 335.749,358.176 336.915,358.343 338,360.5C 339.428,355.773 341.428,355.773 344,360.5C 345.113,359.289 346.28,359.289 347.5,360.5C 348.63,359.216 349.963,358.383 351.5,358C 347.824,355.944 344.491,353.444 341.5,350.5C 339.899,351.165 338.399,351.499 337,351.5C 336.5,351 336,350.5 335.5,350C 336.823,349.184 337.489,348.017 337.5,346.5 Z"/></g>
<g><path style="opacity:0.004" fill="#eab848" d="M 659.5,417.5 C 660.833,418.167 660.833,418.167 659.5,417.5 Z"/></g>
<g><path style="opacity:0.403" fill="#e0dddb" d="M -0.5,-0.5 C -0.166667,-0.5 0.166667,-0.5 0.5,-0.5C 0.5,340.833 0.5,682.167 0.5,1023.5C 0.166667,1023.5 -0.166667,1023.5 -0.5,1023.5C -0.5,682.167 -0.5,340.833 -0.5,-0.5 Z"/></g>
<g><path style="opacity:1" fill="#e7a81d" d="M 277.5,283.5 C 280.358,289.204 283.858,294.537 288,299.5C 303.054,316.721 319.554,332.388 337.5,346.5C 337.489,348.017 336.823,349.184 335.5,350C 336,350.5 336.5,351 337,351.5C 338.399,351.499 339.899,351.165 341.5,350.5C 344.491,353.444 347.824,355.944 351.5,358C 349.963,358.383 348.63,359.216 347.5,360.5C 346.28,359.289 345.113,359.289 344,360.5C 341.428,355.773 339.428,355.773 338,360.5C 336.915,358.343 335.749,358.176 334.5,360C 337.188,360.782 338.188,362.282 337.5,364.5C 339.958,365.209 342.125,365.209 344,364.5C 344.138,366.432 343.638,368.266 342.5,370C 343.634,371.016 343.301,371.683 341.5,372C 342.766,372.309 343.933,372.809 345,373.5C 345.684,372.216 345.517,371.049 344.5,370C 346.355,367.955 347.689,365.621 348.5,363C 349.167,362.333 349.833,362.333 350.5,363C 347.741,365.484 348.074,366.65 351.5,366.5C 352.601,361.296 353.935,361.296 355.5,366.5C 355.833,365.833 356.167,365.167 356.5,364.5C 359.096,365.213 361.763,365.213 364.5,364.5C 364.658,367.545 363.991,370.379 362.5,373C 364.492,373.574 365.992,374.741 367,376.5C 368.713,376.62 370.546,376.453 372.5,376C 371.549,376.718 371.383,377.551 372,378.5C 373.337,377.235 374.837,376.735 376.5,377C 375.816,380.035 374.149,382.369 371.5,384C 374.853,388.436 375.187,392.769 372.5,397C 374.081,397.707 375.581,398.54 377,399.5C 377.333,398.833 377.667,398.167 378,397.5C 378.324,399.569 379.158,399.902 380.5,398.5C 382.79,400.967 384.957,400.967 387,398.5C 387.333,398.833 387.667,399.167 388,399.5C 388.853,397.875 389.853,397.542 391,398.5C 392.067,397.809 393.234,397.309 394.5,397C 392.615,394.77 391.115,392.27 390,389.5C 388.667,391.5 387.333,393.5 386,395.5C 385.751,394.376 385.251,393.376 384.5,392.5C 383.549,393.326 382.549,393.492 381.5,393C 382.227,391.601 382.727,390.101 383,388.5C 386.025,389.791 386.359,389.124 384,386.5C 383.667,386.833 383.333,387.167 383,387.5C 380.929,386.475 378.762,385.642 376.5,385C 377.931,384.535 379.097,383.701 380,382.5C 382.996,384.491 385.829,384.491 388.5,382.5C 390.371,383.767 392.204,383.767 394,382.5C 394.667,383.167 395.333,383.833 396,384.5C 397.117,384.335 398.284,384.002 399.5,383.5C 401.159,385.587 402.826,385.254 404.5,382.5C 407.084,383.758 408.751,385.258 409.5,387C 406.057,387.221 405.724,388.221 408.5,390C 406.071,390.451 405.904,391.285 408,392.5C 409.309,390.109 410.309,390.109 411,392.5C 411.833,390 413,389.833 414.5,392C 413.269,393.183 413.269,394.349 414.5,395.5C 416.622,395.377 418.789,395.377 421,395.5C 422.543,397.089 422.543,398.423 421,399.5C 418.901,397.172 416.735,397.006 414.5,399C 416.095,398.383 417.428,398.716 418.5,400C 416.299,400.777 416.299,401.944 418.5,403.5C 420.756,401.244 421.423,401.744 420.5,405C 421.814,408.383 422.647,411.883 423,415.5C 424.204,414.529 424.704,413.529 424.5,412.5C 425.251,413.376 425.751,414.376 426,415.5C 426.772,414.151 427.939,413.318 429.5,413C 426.388,412.149 426.054,410.983 428.5,409.5C 429.451,410.326 430.451,410.492 431.5,410C 431.381,408.719 431.881,407.552 433,406.5C 435.69,408.193 437.69,410.527 439,413.5C 439.49,414.793 439.657,416.127 439.5,417.5C 437.305,416.392 435.305,416.559 433.5,418C 436.032,418.612 436.865,420.112 436,422.5C 435.549,420.071 434.715,419.904 433.5,422C 436.886,425.618 438.219,425.118 437.5,420.5C 438.908,419.757 440.241,418.923 441.5,418C 440.446,416.612 440.28,415.112 441,413.5C 441.787,414.711 442.454,415.711 443,416.5C 444.171,415.66 445.338,414.827 446.5,414C 442.66,412.36 442.66,410.86 446.5,409.5C 445.833,409.167 445.167,408.833 444.5,408.5C 447.086,405.8 448.086,406.134 447.5,409.5C 449.991,410.541 449.991,411.374 447.5,412C 449.985,413.563 451.651,415.23 452.5,417C 451.692,417.308 451.025,417.808 450.5,418.5C 451.391,419.59 452.391,419.59 453.5,418.5C 454.167,419.5 454.833,420.5 455.5,421.5C 455.06,420.047 455.726,418.881 457.5,418C 456.833,417.667 456.167,417.333 455.5,417C 457.241,415.38 459.075,413.88 461,412.5C 461.333,412.833 461.667,413.167 462,413.5C 464.107,409.485 464.773,409.818 464,414.5C 463.147,416.125 462.147,416.458 461,415.5C 460.333,417.167 460.333,418.833 461,420.5C 462.204,419.529 462.704,418.529 462.5,417.5C 464.77,422.73 468.104,423.896 472.5,421C 472.501,419.601 472.835,418.101 473.5,416.5C 472.5,413.833 471.5,413.833 470.5,416.5C 468.885,415.846 467.218,415.346 465.5,415C 466.766,414.691 467.933,414.191 469,413.5C 469.793,410.979 470.626,408.979 471.5,407.5C 473.5,408.833 475.5,410.167 477.5,411.5C 478.786,411.148 479.619,410.482 480,409.5C 481.171,410.34 482.338,411.173 483.5,412C 483.167,412.333 482.833,412.667 482.5,413C 483.793,413.49 485.127,413.657 486.5,413.5C 484.433,417.954 485.933,420.287 491,420.5C 495.078,419.74 495.578,421.073 492.5,424.5C 490.091,423.278 488.258,423.945 487,426.5C 486.167,425 485,423.833 483.5,423C 484.517,421.951 484.684,420.784 484,419.5C 483.667,420.167 483.333,420.833 483,421.5C 482.107,420.289 481.274,420.289 480.5,421.5C 481.025,422.192 481.692,422.692 482.5,423C 479.946,425.269 479.946,427.602 482.5,430C 480.609,430.309 479.275,429.475 478.5,427.5C 475.185,428.177 472.018,428.177 469,427.5C 468.383,428.449 468.549,429.282 469.5,430C 468.285,432.096 467.451,431.929 467,429.5C 465.601,429.501 464.101,429.835 462.5,430.5C 461.808,429.975 461.308,429.308 461,428.5C 458.468,430.608 456.802,433.275 456,436.5C 455.147,434.875 454.147,434.542 453,435.5C 452.138,433.913 451.471,432.246 451,430.5C 449.984,431.634 449.317,431.301 449,429.5C 446.365,432.506 444.365,432.172 443,428.5C 442.228,429.849 441.061,430.682 439.5,431C 440.517,432.049 440.684,433.216 440,434.5C 435.62,436.7 435.454,438.034 439.5,438.5C 437.978,440.156 438.311,441.323 440.5,442C 438.913,442.862 437.246,443.529 435.5,444C 436.337,445.011 436.67,446.178 436.5,447.5C 431.756,447.038 430.756,448.538 433.5,452C 432.285,454.096 431.451,453.929 431,451.5C 429.187,455.064 430.02,457.897 433.5,460C 431.413,459.782 429.413,459.949 427.5,460.5C 424.956,462.392 424.956,464.225 427.5,466C 425.667,466.5 424.5,467.667 424,469.5C 421.538,468.35 419.204,467.017 417,465.5C 416.51,466.793 416.343,468.127 416.5,469.5C 415.448,469.649 414.448,469.483 413.5,469C 413.833,468.667 414.167,468.333 414.5,468C 413.185,466.466 411.852,465.966 410.5,466.5C 411.641,467.425 411.641,468.259 410.5,469C 411.672,469.419 412.672,470.085 413.5,471C 410.833,472.333 410.833,473.667 413.5,475C 411.129,476.406 409.462,478.406 408.5,481C 411.21,483.351 410.877,485.351 407.5,487C 409.807,488.828 409.474,490.494 406.5,492C 408.929,492.451 409.096,493.285 407,494.5C 404.929,491.584 403.595,491.918 403,495.5C 401.315,493.012 399.981,493.345 399,496.5C 397.883,495.051 397.216,493.384 397,491.5C 395.333,492.833 393.667,494.167 392,495.5C 391.667,494.167 391.333,492.833 391,491.5C 389.933,492.191 388.766,492.691 387.5,493C 388.167,494.333 388.833,495.667 389.5,497C 386.833,497.667 386.833,498.333 389.5,499C 388.76,500.785 388.093,502.618 387.5,504.5C 389.705,504.966 391.705,504.966 393.5,504.5C 392.833,505.5 392.167,506.5 391.5,507.5C 392.855,508.675 392.688,509.675 391,510.5C 389.16,509.167 388.66,509.334 389.5,511C 389.017,514.462 387.85,514.962 386,512.5C 383.827,515.277 383.327,515.11 384.5,512C 382.422,509.866 380.588,510.032 379,512.5C 377.442,511.655 376.442,512.321 376,514.5C 374.846,512.043 373.512,512.043 372,514.5C 371.311,513.643 370.478,512.977 369.5,512.5C 368.232,514.304 367.565,516.304 367.5,518.5C 364.653,518.782 361.987,518.782 359.5,518.5C 358.833,519.167 358.167,519.833 357.5,520.5C 356.033,520.277 354.533,519.944 353,519.5C 351.846,520.743 350.512,521.743 349,522.5C 347.307,518.678 345.973,519.011 345,523.5C 342.852,521.428 343.018,519.594 345.5,518C 344.584,517.722 343.918,517.222 343.5,516.5C 341.238,514.456 341.904,512.956 345.5,512C 344.914,509.72 344.08,507.553 343,505.5C 341.69,500.852 342.69,499.852 346,502.5C 346.5,502.167 347,501.833 347.5,501.5C 345.831,501.307 344.164,500.307 342.5,498.5C 340.625,499.54 339.292,501.04 338.5,503C 340.213,505.294 341.88,507.627 343.5,510C 342.073,512.369 340.239,512.869 338,511.5C 337.417,513.002 336.584,514.335 335.5,515.5C 334.197,514.282 333.197,514.615 332.5,516.5C 331.757,515.092 330.923,513.759 330,512.5C 329.667,513.5 329.333,514.5 329,515.5C 326.957,514.421 325.624,512.754 325,510.5C 324.333,513.167 323.667,513.167 323,510.5C 324.184,514.063 323.184,517.063 320,519.5C 320.617,517.905 320.284,516.572 319,515.5C 316.75,516.708 314.583,518.041 312.5,519.5C 311.692,519.192 311.025,518.692 310.5,518C 311.672,517.581 312.672,516.915 313.5,516C 313.041,514.324 312.374,512.824 311.5,511.5C 310.5,512.5 309.5,513.5 308.5,514.5C 309.397,514.669 310.397,515.002 311.5,515.5C 308.233,516.723 308.233,518.556 311.5,521C 311,521.5 310.5,522 310,522.5C 309.333,521.167 308.667,519.833 308,518.5C 306.451,521.003 304.784,521.003 303,518.5C 302.331,521.028 301.498,521.028 300.5,518.5C 301.563,516.634 300.896,516.134 298.5,517C 299.576,518.726 299.743,520.559 299,522.5C 297.984,521.366 297.317,521.699 297,523.5C 295.764,521.693 295.43,519.693 296,517.5C 295.333,520.167 294.667,520.167 294,517.5C 292.872,519.345 292.372,521.345 292.5,523.5C 287.961,521.873 286.794,523.206 289,527.5C 290.343,526.786 291.676,527.12 293,528.5C 293.089,526.887 292.255,525.72 290.5,525C 291.872,524.598 293.205,524.098 294.5,523.5C 297.984,524.198 301.318,525.364 304.5,527C 304,527.5 303.5,528 303,528.5C 301,527.833 299,527.167 297,526.5C 295,527.5 295,528.5 297,529.5C 298.183,528.269 299.349,528.269 300.5,529.5C 298.135,530.085 296.135,531.252 294.5,533C 295.833,534 295.833,535 294.5,536C 295.449,536.617 296.282,536.451 297,535.5C 297.333,536.5 297.667,537.5 298,538.5C 298.654,537.304 299.154,537.304 299.5,538.5C 299.113,539.72 298.28,540.387 297,540.5C 295.943,539.373 294.777,538.873 293.5,539C 294.308,540.706 295.641,541.539 297.5,541.5C 297.716,543.681 296.883,545.347 295,546.5C 294.493,545.004 294.993,543.837 296.5,543C 295.004,542.493 293.837,542.993 293,544.5C 290.391,544.224 287.724,544.224 285,544.5C 285.077,543.262 284.911,542.262 284.5,541.5C 282.929,542.309 281.262,542.643 279.5,542.5C 280.445,540.435 281.112,538.601 281.5,537C 282.825,537.148 283.992,536.982 285,536.5C 285.451,538.929 286.285,539.096 287.5,537C 286.978,536.439 286.645,535.772 286.5,535C 287.615,533.607 288.115,532.107 288,530.5C 287,530.167 286,529.833 285,529.5C 284.316,530.784 284.483,531.951 285.5,533C 285,533.167 284.5,533.333 284,533.5C 281.732,532.528 279.732,531.195 278,529.5C 276.62,532.058 275.12,532.058 273.5,529.5C 272.808,530.025 272.308,530.692 272,531.5C 269.319,529.342 266.652,527.008 264,524.5C 263.517,523.552 263.351,522.552 263.5,521.5C 262.448,521.649 261.448,521.483 260.5,521C 261.711,520.107 261.711,519.274 260.5,518.5C 259.28,518.887 258.613,519.72 258.5,521C 259.868,522.873 261.534,524.54 263.5,526C 260.82,526.335 258.487,525.501 256.5,523.5C 255.169,524.592 254.336,525.926 254,527.5C 253.25,526.874 252.416,526.374 251.5,526C 252.453,524.045 253.787,522.378 255.5,521C 254.809,519.933 254.309,518.766 254,517.5C 251.5,518.429 249.333,518.429 247.5,517.5C 247.833,516.5 248.5,515.833 249.5,515.5C 250.451,516.326 251.451,516.492 252.5,516C 253.184,514.307 254.184,512.807 255.5,511.5C 253.675,510.429 252.508,511.096 252,513.5C 250.601,512.773 249.101,512.273 247.5,512C 250.689,511.158 253.689,509.825 256.5,508C 254.009,507.374 254.009,506.541 256.5,505.5C 255.779,500.946 253.112,498.779 248.5,499C 250.405,498.174 250.739,497.007 249.5,495.5C 249.167,496.167 248.833,496.833 248.5,497.5C 245.652,494.359 245.819,492.359 249,491.5C 249.667,490.833 249.667,490.167 249,489.5C 247.192,489.112 245.525,489.112 244,489.5C 243.085,488.672 242.419,487.672 242,486.5C 241.333,487.833 240.667,487.833 240,486.5C 239.667,482.5 239.333,478.5 239,474.5C 237.737,492.123 237.07,509.789 237,527.5C 236.5,509.503 236.333,491.503 236.5,473.5C 241.231,407.345 253.731,342.678 274,279.5C 274.66,281.324 275.827,282.657 277.5,283.5 Z"/></g>
<g><path style="opacity:0.012" fill="#e3aa27" d="M 581.5,480.5 C 582.833,481.167 582.833,481.167 581.5,480.5 Z"/></g>
<g><path style="opacity:0.004" fill="#dbaa31" d="M 588.5,490.5 C 589.833,491.167 589.833,491.167 588.5,490.5 Z"/></g>
<g><path style="opacity:1" fill="#e5aa1e" d="M 504.5,509.5 C 517.942,515.791 522.276,526.124 517.5,540.5C 508.756,551.261 498.09,553.427 485.5,547C 476.732,538.314 475.232,528.48 481,517.5C 487.182,510.166 495.016,507.5 504.5,509.5 Z"/></g>
<g><path style="opacity:0.008" fill="#e4b544" d="M 233.5,527.5 C 234.833,528.167 234.833,528.167 233.5,527.5 Z"/></g>
<g><path style="opacity:0.004" fill="#75642a" d="M 609.5,533.5 C 610.833,534.167 610.833,534.167 609.5,533.5 Z"/></g>
<g><path style="opacity:1" fill="#e7a81f" d="M 236.5,473.5 C 236.333,491.503 236.5,509.503 237,527.5C 237.07,509.789 237.737,492.123 239,474.5C 239.333,478.5 239.667,482.5 240,486.5C 240.667,487.833 241.333,487.833 242,486.5C 242.419,487.672 243.085,488.672 244,489.5C 245.525,489.112 247.192,489.112 249,489.5C 249.667,490.167 249.667,490.833 249,491.5C 245.819,492.359 245.652,494.359 248.5,497.5C 248.833,496.833 249.167,496.167 249.5,495.5C 250.739,497.007 250.405,498.174 248.5,499C 253.112,498.779 255.779,500.946 256.5,505.5C 254.009,506.541 254.009,507.374 256.5,508C 253.689,509.825 250.689,511.158 247.5,512C 249.101,512.273 250.601,512.773 252,513.5C 252.508,511.096 253.675,510.429 255.5,511.5C 254.184,512.807 253.184,514.307 252.5,516C 251.451,516.492 250.451,516.326 249.5,515.5C 248.5,515.833 247.833,516.5 247.5,517.5C 249.333,518.429 251.5,518.429 254,517.5C 254.309,518.766 254.809,519.933 255.5,521C 253.787,522.378 252.453,524.045 251.5,526C 252.416,526.374 253.25,526.874 254,527.5C 254.336,525.926 255.169,524.592 256.5,523.5C 258.487,525.501 260.82,526.335 263.5,526C 261.534,524.54 259.868,522.873 258.5,521C 258.613,519.72 259.28,518.887 260.5,518.5C 261.711,519.274 261.711,520.107 260.5,521C 261.448,521.483 262.448,521.649 263.5,521.5C 263.351,522.552 263.517,523.552 264,524.5C 266.652,527.008 269.319,529.342 272,531.5C 272.308,530.692 272.808,530.025 273.5,529.5C 275.12,532.058 276.62,532.058 278,529.5C 279.732,531.195 281.732,532.528 284,533.5C 284.5,533.333 285,533.167 285.5,533C 284.483,531.951 284.316,530.784 285,529.5C 286,529.833 287,530.167 288,530.5C 288.115,532.107 287.615,533.607 286.5,535C 286.645,535.772 286.978,536.439 287.5,537C 286.285,539.096 285.451,538.929 285,536.5C 283.992,536.982 282.825,537.148 281.5,537C 281.112,538.601 280.445,540.435 279.5,542.5C 281.262,542.643 282.929,542.309 284.5,541.5C 284.911,542.262 285.077,543.262 285,544.5C 287.724,544.224 290.391,544.224 293,544.5C 293.837,542.993 295.004,542.493 296.5,543C 294.993,543.837 294.493,545.004 295,546.5C 296.883,545.347 297.716,543.681 297.5,541.5C 295.641,541.539 294.308,540.706 293.5,539C 294.777,538.873 295.943,539.373 297,540.5C 298.28,540.387 299.113,539.72 299.5,538.5C 299.154,537.304 298.654,537.304 298,538.5C 297.667,537.5 297.333,536.5 297,535.5C 296.282,536.451 295.449,536.617 294.5,536C 295.833,535 295.833,534 294.5,533C 296.135,531.252 298.135,530.085 300.5,529.5C 299.349,528.269 298.183,528.269 297,529.5C 295,528.5 295,527.5 297,526.5C 299,527.167 301,527.833 303,528.5C 303.5,528 304,527.5 304.5,527C 301.318,525.364 297.984,524.198 294.5,523.5C 293.205,524.098 291.872,524.598 290.5,525C 292.255,525.72 293.089,526.887 293,528.5C 291.676,527.12 290.343,526.786 289,527.5C 286.794,523.206 287.961,521.873 292.5,523.5C 292.372,521.345 292.872,519.345 294,517.5C 294.667,520.167 295.333,520.167 296,517.5C 295.43,519.693 295.764,521.693 297,523.5C 297.317,521.699 297.984,521.366 299,522.5C 299.743,520.559 299.576,518.726 298.5,517C 300.896,516.134 301.563,516.634 300.5,518.5C 301.498,521.028 302.331,521.028 303,518.5C 304.784,521.003 306.451,521.003 308,518.5C 308.667,519.833 309.333,521.167 310,522.5C 310.5,522 311,521.5 311.5,521C 308.233,518.556 308.233,516.723 311.5,515.5C 310.397,515.002 309.397,514.669 308.5,514.5C 309.5,513.5 310.5,512.5 311.5,511.5C 312.374,512.824 313.041,514.324 313.5,516C 312.672,516.915 311.672,517.581 310.5,518C 311.025,518.692 311.692,519.192 312.5,519.5C 314.583,518.041 316.75,516.708 319,515.5C 320.284,516.572 320.617,517.905 320,519.5C 323.184,517.063 324.184,514.063 323,510.5C 323.667,513.167 324.333,513.167 325,510.5C 325.624,512.754 326.957,514.421 329,515.5C 329.333,514.5 329.667,513.5 330,512.5C 330.923,513.759 331.757,515.092 332.5,516.5C 333.197,514.615 334.197,514.282 335.5,515.5C 336.584,514.335 337.417,513.002 338,511.5C 340.239,512.869 342.073,512.369 343.5,510C 341.88,507.627 340.213,505.294 338.5,503C 339.292,501.04 340.625,499.54 342.5,498.5C 344.164,500.307 345.831,501.307 347.5,501.5C 347,501.833 346.5,502.167 346,502.5C 342.69,499.852 341.69,500.852 343,505.5C 344.08,507.553 344.914,509.72 345.5,512C 341.904,512.956 341.238,514.456 343.5,516.5C 341.711,518.651 340.378,521.151 339.5,524C 340.449,524.617 341.282,524.451 342,523.5C 343.249,527.396 342.083,528.73 338.5,527.5C 337.233,525.629 337.233,523.796 338.5,522C 336.408,521.047 336.075,519.714 337.5,518C 335.003,516.017 333.836,516.85 334,520.5C 333.667,520.167 333.333,519.833 333,519.5C 332.5,520.667 331.667,521.5 330.5,522C 332.301,522.317 332.634,522.984 331.5,524C 333.101,524.273 334.601,524.773 336,525.5C 336.526,527.55 337.359,529.383 338.5,531C 337.313,532.019 336.313,533.186 335.5,534.5C 336.817,534.313 338.15,534.98 339.5,536.5C 337.364,537.472 336.197,539.139 336,541.5C 335.026,539.122 334.359,539.456 334,542.5C 331.247,539.337 328.08,538.504 324.5,540C 325.451,540.718 325.617,541.551 325,542.5C 322.099,539.682 319.599,540.016 317.5,543.5C 317.36,542.431 317.36,541.264 317.5,540C 316.624,538.414 315.624,536.914 314.5,535.5C 313.629,537.058 312.629,538.725 311.5,540.5C 312.689,541.429 314.022,541.762 315.5,541.5C 315.081,544.026 314.914,546.359 315,548.5C 313.293,549.138 311.46,549.138 309.5,548.5C 309.67,549.822 309.337,550.989 308.5,552C 304.147,552.533 303.814,552.199 307.5,551C 304.793,550.672 302.126,551.005 299.5,552C 300.624,552.249 301.624,552.749 302.5,553.5C 302.062,554.506 301.396,554.506 300.5,553.5C 299.417,554.365 299.251,555.365 300,556.5C 300.741,557.641 301.575,557.641 302.5,556.5C 303.228,558.193 304.228,559.693 305.5,561C 304.483,562.049 304.316,563.216 305,564.5C 305.333,564.167 305.667,563.833 306,563.5C 307.395,565.14 308.895,566.64 310.5,568C 309.416,570.19 310.083,571.856 312.5,573C 310.14,574.365 308.473,576.365 307.5,579C 307.833,579.333 308.167,579.667 308.5,580C 306.833,581.333 305.167,582.667 303.5,584C 304.167,584.333 304.833,584.667 305.5,585C 303.993,585.837 303.493,587.004 304,588.5C 305.714,589.925 307.047,589.592 308,587.5C 310.363,591.326 309.197,592.993 304.5,592.5C 304.298,594.989 304.798,597.323 306,599.5C 307.487,598.259 308.32,598.759 308.5,601C 308.05,602.55 307.883,604.05 308,605.5C 309.755,604.33 310.755,602.663 311,600.5C 312.646,602.597 314.646,604.264 317,605.5C 317.471,603.754 318.138,602.087 319,600.5C 319.374,601.416 319.874,602.25 320.5,603C 319.66,604.666 320.16,604.833 322,603.5C 322.481,606.477 323.648,609.143 325.5,611.5C 329.462,611.892 333.128,613.058 336.5,615C 334.893,614.981 333.226,614.815 331.5,614.5C 331.528,616.582 330.861,618.416 329.5,620C 331.712,622.333 333.212,624.833 334,627.5C 335.113,626.24 335.28,625.073 334.5,624C 335.333,623.833 336.167,623.667 337,623.5C 337.864,624.722 339.53,625.722 342,626.5C 343.144,626.089 344.311,625.756 345.5,625.5C 349.041,626.571 349.708,628.237 347.5,630.5C 347.646,632.315 347.812,634.315 348,636.5C 347.549,634.071 346.715,633.904 345.5,636C 346.618,637.074 347.618,638.24 348.5,639.5C 349.354,638.478 350.354,637.645 351.5,637C 350.289,636.107 350.289,635.274 351.5,634.5C 353.446,636.087 354.946,635.754 356,633.5C 356.167,634 356.333,634.5 356.5,635C 354.488,636.152 354.322,637.318 356,638.5C 356.667,637.167 357.333,637.167 358,638.5C 358.667,635.833 359.333,635.833 360,638.5C 361.388,637.446 362.888,637.28 364.5,638C 363.692,638.308 363.025,638.808 362.5,639.5C 363.826,639.205 365.159,639.705 366.5,641C 366.063,643.449 366.063,645.783 366.5,648C 365.833,648.333 365.167,648.667 364.5,649C 366.494,650.368 368.494,650.868 370.5,650.5C 369.833,651.167 369.167,651.833 368.5,652.5C 370.35,653.648 371.017,654.981 370.5,656.5C 371.538,654.556 372.871,653.056 374.5,652C 376.713,651.374 378.88,651.541 381,652.5C 382.763,652.025 384.43,651.358 386,650.5C 386.333,651.167 386.667,651.833 387,652.5C 390.073,651.761 392.24,649.928 393.5,647C 392.027,646.29 391.36,645.124 391.5,643.5C 393.722,643.178 395.556,643.845 397,645.5C 397.414,645.043 397.914,644.709 398.5,644.5C 400.264,646.278 402.264,647.611 404.5,648.5C 461.041,692.467 525.374,716.134 597.5,719.5C 621.224,721.136 644.89,720.47 668.5,717.5C 680.2,716.329 691.867,714.829 703.5,713C 701.866,712.506 700.199,712.34 698.5,712.5C 763.684,707.912 826.184,692.246 886,665.5C 887.033,665.548 887.366,665.881 887,666.5C 858.642,688.263 827.142,704.096 792.5,714C 730.484,732.261 667.15,739.928 602.5,737C 572.804,734.83 543.138,732.33 513.5,729.5C 489.404,732.344 465.238,734.344 441,735.5C 356.885,732.295 295.885,693.295 258,618.5C 238.091,571.965 230.924,523.631 236.5,473.5 Z"/></g>
<g><path style="opacity:1" fill="#e4a621" d="M 619.5,569.5 C 623.046,605.005 618.38,639.339 605.5,672.5C 603.181,677.093 600.847,681.759 598.5,686.5C 597.549,685.081 597.216,683.415 597.5,681.5C 598.179,645.294 598.846,608.961 599.5,572.5C 599.953,571.542 600.619,570.708 601.5,570C 607.491,569.501 613.491,569.334 619.5,569.5 Z"/></g>
<g><path style="opacity:0.012" fill="#e9b43c" d="M 692.5,575.5 C 693.833,576.167 693.833,576.167 692.5,575.5 Z"/></g>
<g><path style="opacity:1" fill="#090f1d" d="M 373.5,551.5 C 373.938,551.435 374.272,551.601 374.5,552C 369.998,556.457 369.664,561.124 373.5,566C 380.394,567.26 387.394,567.926 394.5,568C 398.896,568.73 401.73,571.23 403,575.5C 403.667,589.833 403.667,604.167 403,618.5C 402.617,617.944 402.117,617.611 401.5,617.5C 401.667,603.163 401.5,588.829 401,574.5C 400.252,572.249 398.752,570.916 396.5,570.5C 388.935,569.898 381.269,569.064 373.5,568C 368.189,562.383 368.189,556.883 373.5,551.5 Z"/></g>
<g><path style="opacity:1" fill="#19231f" d="M 607.5,534.5 C 613.804,540.634 620.304,546.634 627,552.5C 630.446,558.86 629.28,564.36 623.5,569C 622.207,569.49 620.873,569.657 619.5,569.5C 613.491,569.334 607.491,569.501 601.5,570C 600.619,570.708 599.953,571.542 599.5,572.5C 599.167,572.5 598.833,572.5 598.5,572.5C 598.565,572.062 598.399,571.728 598,571.5C 597.085,572.328 596.419,573.328 596,574.5C 595.169,613.002 595.336,651.336 596.5,689.5C 594.83,694.339 592.497,698.839 589.5,703C 617.089,708.157 644.755,711.323 672.5,712.5C 666.491,712.334 660.491,712.501 654.5,713C 662.543,713.224 670.543,713.891 678.5,715C 673.627,715.175 670.294,716.008 668.5,717.5C 644.89,720.47 621.224,721.136 597.5,719.5C 601.514,719.666 605.514,719.499 609.5,719C 589.34,718.122 569.34,715.956 549.5,712.5C 549.5,711.167 549.5,709.833 549.5,708.5C 544.993,707.133 544.493,704.799 548,701.5C 548.309,702.766 548.809,703.933 549.5,705C 552.019,704.291 552.019,702.957 549.5,701C 549.833,700.667 550.167,700.333 550.5,700C 549.167,700 547.833,700 546.5,700C 547.109,697.942 548.109,697.109 549.5,697.5C 548.747,695.247 547.414,693.413 545.5,692C 547.202,690.417 548.536,690.917 549.5,693.5C 549.833,692.833 550.167,692.167 550.5,691.5C 551.833,692.167 553.167,692.833 554.5,693.5C 555.192,692.975 555.692,692.308 556,691.5C 556.249,692.624 556.749,693.624 557.5,694.5C 558.452,693.467 558.452,692.3 557.5,691C 556.048,689.435 554.381,688.102 552.5,687C 553.899,686.405 555.232,686.572 556.5,687.5C 557.568,685.813 557.401,684.146 556,682.5C 555.626,683.416 555.126,684.25 554.5,685C 551.775,686.195 549.109,686.528 546.5,686C 548.966,686.93 548.799,687.763 546,688.5C 541.368,686.804 541.368,685.138 546,683.5C 547.921,684.19 549.755,684.524 551.5,684.5C 552.5,684.167 553.167,683.5 553.5,682.5C 551.187,681.727 548.854,681.06 546.5,680.5C 545.749,679.624 545.249,678.624 545,677.5C 544.667,677.833 544.333,678.167 544,678.5C 543.289,676.633 543.789,675.133 545.5,674C 544.833,672.667 543.833,671.667 542.5,671C 542.888,669.475 542.888,667.808 542.5,666C 544.116,665.385 545.449,664.385 546.5,663C 545.141,661.796 544.141,660.296 543.5,658.5C 542.719,659.729 542.219,661.062 542,662.5C 541.667,661.5 541.333,660.5 541,659.5C 540.333,660.833 539.667,660.833 539,659.5C 538.195,661.901 537.362,661.734 536.5,659C 538.715,657.609 538.715,655.943 536.5,654C 537,653.5 537.5,653 538,652.5C 539.049,653.517 540.216,653.684 541.5,653C 540.751,651.266 540.251,649.433 540,647.5C 538.844,648.993 538.01,648.826 537.5,647C 537.905,646.055 538.572,645.388 539.5,645C 537.5,644.333 536.167,643 535.5,641C 533.376,639.418 531.21,639.251 529,640.5C 528.831,656.339 528.331,672.005 527.5,687.5C 527.667,657.831 527.5,628.165 527,598.5C 526.482,595.977 525.148,593.977 523,592.5C 522.601,592.728 522.435,593.062 522.5,593.5C 521.508,593.672 520.842,593.338 520.5,592.5C 520.938,592.565 521.272,592.399 521.5,592C 519.03,590.207 516.53,588.373 514,586.5C 513.586,586.957 513.086,587.291 512.5,587.5C 511.417,586.635 511.251,585.635 512,584.5C 514,585.833 516,585.833 518,584.5C 518.333,585.5 518.667,586.5 519,587.5C 519.309,586.234 519.809,585.067 520.5,584C 519.636,582.863 518.636,581.53 517.5,580C 518.333,579.833 519.167,579.667 520,579.5C 521.953,581.248 523.953,582.248 526,582.5C 527.301,580.598 527.968,578.598 528,576.5C 526.47,577.636 525.137,578.636 524,579.5C 522.318,578.135 522.151,576.635 523.5,575C 521.096,574.492 520.429,573.325 521.5,571.5C 523.382,572.093 525.215,572.76 527,573.5C 527.915,571.02 529.415,570.353 531.5,571.5C 531.833,571.167 532.167,570.833 532.5,570.5C 530.556,568.973 529.889,567.307 530.5,565.5C 531.251,566.376 531.751,567.376 532,568.5C 533.236,566.693 533.57,564.693 533,562.5C 534.252,564.001 535.252,565.668 536,567.5C 537,566.167 538,564.833 539,563.5C 539.718,564.451 540.551,564.617 541.5,564C 539.359,562.85 537.526,561.35 536,559.5C 534.588,560.923 533.421,560.756 532.5,559C 534.39,557.127 536.39,556.294 538.5,556.5C 538.296,557.529 538.796,558.529 540,559.5C 540.691,557.109 541.691,557.109 543,559.5C 542.852,558.175 543.018,557.008 543.5,556C 539.749,555.239 539.583,554.072 543,552.5C 543.465,553.931 544.299,555.097 545.5,556C 544.24,557.814 544.24,559.647 545.5,561.5C 546.308,561.192 546.975,560.692 547.5,560C 546.62,558.644 546.286,557.144 546.5,555.5C 549.137,555.227 551.47,554.894 553.5,554.5C 551.436,552.022 549.436,552.022 547.5,554.5C 545.729,553.965 545.396,553.131 546.5,552C 545.552,551.517 544.552,551.351 543.5,551.5C 543.822,547.561 542.489,546.728 539.5,549C 540.711,549.893 540.711,550.726 539.5,551.5C 537.606,550.399 536.939,549.066 537.5,547.5C 536.719,548.729 536.219,550.062 536,551.5C 535.667,551.167 535.333,550.833 535,550.5C 534.626,551.416 534.126,552.25 533.5,553C 534.82,555.215 534.153,556.715 531.5,557.5C 529.995,554.869 529.329,555.203 529.5,558.5C 528.167,558.5 526.833,558.5 525.5,558.5C 525.34,556.801 525.506,555.134 526,553.5C 526.333,554.167 526.667,554.833 527,555.5C 527.419,554.328 528.085,553.328 529,552.5C 528.621,550.925 528.788,549.425 529.5,548C 528.167,547.667 526.833,547.333 525.5,547C 525.833,546.667 526.167,546.333 526.5,546C 525.141,544.796 524.141,543.296 523.5,541.5C 522.575,542.641 521.741,542.641 521,541.5C 520.755,543.663 519.755,545.33 518,546.5C 517.342,544.892 517.842,543.725 519.5,543C 518.244,542.583 517.577,541.75 517.5,540.5C 522.276,526.124 517.942,515.791 504.5,509.5C 503.322,507.957 501.156,507.29 498,507.5C 495.958,507.615 493.958,507.949 492,508.5C 490.349,507.258 488.515,506.424 486.5,506C 488.019,504.649 489.352,503.149 490.5,501.5C 489.624,500.749 488.624,500.249 487.5,500C 490.28,499.63 492.28,498.63 493.5,497C 491.559,496.696 489.893,495.863 488.5,494.5C 487.289,495.274 487.289,496.107 488.5,497C 487.531,498.758 486.364,499.258 485,498.5C 484.676,500.569 483.842,500.902 482.5,499.5C 482.167,500 481.833,500.5 481.5,501C 482.061,503.071 482.394,505.071 482.5,507C 482.333,507.5 482.167,508 482,508.5C 481.282,507.549 480.449,507.383 479.5,508C 480.833,509 482.167,510 483.5,511C 482.5,511.5 481.5,512 480.5,512.5C 479.572,517.025 478.072,521.358 476,525.5C 475.149,522.792 474.649,520.292 474.5,518C 478.807,516.979 479.141,515.812 475.5,514.5C 474.914,514.709 474.414,515.043 474,515.5C 472.102,512.87 470.269,512.537 468.5,514.5C 467.494,514.062 467.494,513.396 468.5,512.5C 466.448,509.597 465.114,509.93 464.5,513.5C 463.41,512.273 462.076,511.44 460.5,511C 461.5,510.667 462.5,510.333 463.5,510C 462.159,508.705 460.826,508.205 459.5,508.5C 460.376,507.749 461.376,507.249 462.5,507C 461.747,505.513 460.914,505.346 460,506.5C 459.626,505.584 459.126,504.75 458.5,504C 459.308,503.692 459.975,503.192 460.5,502.5C 459.24,501.618 458.074,500.618 457,499.5C 456.692,500.308 456.192,500.975 455.5,501.5C 454.269,500.349 454.269,499.183 455.5,498C 453.973,496.632 452.473,496.132 451,496.5C 450.28,498.112 450.446,499.612 451.5,501C 450.833,501.333 450.167,501.667 449.5,502C 452.464,502.84 452.797,503.84 450.5,505C 451.337,506.011 451.67,507.178 451.5,508.5C 449.905,509.362 448.238,509.862 446.5,510C 448.227,508.257 448.894,506.424 448.5,504.5C 447.667,504.167 446.833,503.833 446,503.5C 443.267,503.32 440.767,503.82 438.5,505C 439.191,503.933 439.691,502.766 440,501.5C 441.728,500.76 443.728,500.76 446,501.5C 446.617,500.551 446.451,499.718 445.5,499C 446.5,498.333 447.5,498.333 448.5,499C 447.304,499.654 447.304,500.154 448.5,500.5C 448.833,499.667 449.167,498.833 449.5,498C 448.008,495.991 446.674,493.824 445.5,491.5C 443.799,491.81 442.132,491.31 440.5,490C 445.348,484.985 450.348,480.152 455.5,475.5C 455.063,477.595 456.063,479.262 458.5,480.5C 458.998,479.397 459.331,478.397 459.5,477.5C 460.281,478.729 460.781,480.062 461,481.5C 463.693,480.991 466.193,479.991 468.5,478.5C 470.335,478.259 472.001,478.759 473.5,480C 472.167,478.16 472.334,477.66 474,478.5C 474.692,477.975 475.192,477.308 475.5,476.5C 474.066,474.78 473.233,472.78 473,470.5C 472.529,472.246 471.862,473.913 471,475.5C 468.809,472.518 466.476,472.185 464,474.5C 463.5,472.667 462.333,471.5 460.5,471C 465.407,466.636 469.407,462.136 472.5,457.5C 478.013,451.824 484.013,446.658 490.5,442C 497.468,439.63 504.135,440.297 510.5,444C 542.703,474.372 575.036,504.539 607.5,534.5 Z"/></g>
<g><path style="opacity:0.008" fill="#e3b549" d="M 241.5,579.5 C 242.833,580.167 242.833,580.167 241.5,579.5 Z"/></g>
<g><path style="opacity:1" fill="#18221f" d="M 472.5,457.5 C 469.407,462.136 465.407,466.636 460.5,471C 462.333,471.5 463.5,472.667 464,474.5C 466.476,472.185 468.809,472.518 471,475.5C 471.862,473.913 472.529,472.246 473,470.5C 473.233,472.78 474.066,474.78 475.5,476.5C 475.192,477.308 474.692,477.975 474,478.5C 472.334,477.66 472.167,478.16 473.5,480C 472.001,478.759 470.335,478.259 468.5,478.5C 466.193,479.991 463.693,480.991 461,481.5C 460.781,480.062 460.281,478.729 459.5,477.5C 459.331,478.397 458.998,479.397 458.5,480.5C 456.063,479.262 455.063,477.595 455.5,475.5C 450.348,480.152 445.348,484.985 440.5,490C 442.132,491.31 443.799,491.81 445.5,491.5C 446.674,493.824 448.008,495.991 449.5,498C 449.167,498.833 448.833,499.667 448.5,500.5C 447.304,500.154 447.304,499.654 448.5,499C 447.5,498.333 446.5,498.333 445.5,499C 446.451,499.718 446.617,500.551 446,501.5C 443.728,500.76 441.728,500.76 440,501.5C 439.691,502.766 439.191,503.933 438.5,505C 440.767,503.82 443.267,503.32 446,503.5C 446.833,503.833 447.667,504.167 448.5,504.5C 448.894,506.424 448.227,508.257 446.5,510C 448.238,509.862 449.905,509.362 451.5,508.5C 451.67,507.178 451.337,506.011 450.5,505C 452.797,503.84 452.464,502.84 449.5,502C 450.167,501.667 450.833,501.333 451.5,501C 450.446,499.612 450.28,498.112 451,496.5C 452.473,496.132 453.973,496.632 455.5,498C 454.269,499.183 454.269,500.349 455.5,501.5C 456.192,500.975 456.692,500.308 457,499.5C 458.074,500.618 459.24,501.618 460.5,502.5C 459.975,503.192 459.308,503.692 458.5,504C 459.126,504.75 459.626,505.584 460,506.5C 460.914,505.346 461.747,505.513 462.5,507C 461.376,507.249 460.376,507.749 459.5,508.5C 460.826,508.205 462.159,508.705 463.5,510C 462.5,510.333 461.5,510.667 460.5,511C 462.076,511.44 463.41,512.273 464.5,513.5C 465.114,509.93 466.448,509.597 468.5,512.5C 467.494,513.396 467.494,514.062 468.5,514.5C 470.269,512.537 472.102,512.87 474,515.5C 474.414,515.043 474.914,514.709 475.5,514.5C 479.141,515.812 478.807,516.979 474.5,518C 474.649,520.292 475.149,522.792 476,525.5C 478.072,521.358 479.572,517.025 480.5,512.5C 481.5,512 482.5,511.5 483.5,511C 482.167,510 480.833,509 479.5,508C 480.449,507.383 481.282,507.549 482,508.5C 482.167,508 482.333,507.5 482.5,507C 482.394,505.071 482.061,503.071 481.5,501C 481.833,500.5 482.167,500 482.5,499.5C 483.842,500.902 484.676,500.569 485,498.5C 486.364,499.258 487.531,498.758 488.5,497C 487.289,496.107 487.289,495.274 488.5,494.5C 489.893,495.863 491.559,496.696 493.5,497C 492.28,498.63 490.28,499.63 487.5,500C 488.624,500.249 489.624,500.749 490.5,501.5C 489.352,503.149 488.019,504.649 486.5,506C 488.515,506.424 490.349,507.258 492,508.5C 493.958,507.949 495.958,507.615 498,507.5C 501.156,507.29 503.322,507.957 504.5,509.5C 495.016,507.5 487.182,510.166 481,517.5C 475.232,528.48 476.732,538.314 485.5,547C 498.09,553.427 508.756,551.261 517.5,540.5C 517.577,541.75 518.244,542.583 519.5,543C 517.842,543.725 517.342,544.892 518,546.5C 519.755,545.33 520.755,543.663 521,541.5C 521.741,542.641 522.575,542.641 523.5,541.5C 524.141,543.296 525.141,544.796 526.5,546C 526.167,546.333 525.833,546.667 525.5,547C 526.833,547.333 528.167,547.667 529.5,548C 528.788,549.425 528.621,550.925 529,552.5C 528.085,553.328 527.419,554.328 527,555.5C 526.667,554.833 526.333,554.167 526,553.5C 525.506,555.134 525.34,556.801 525.5,558.5C 526.833,558.5 528.167,558.5 529.5,558.5C 529.329,555.203 529.995,554.869 531.5,557.5C 534.153,556.715 534.82,555.215 533.5,553C 534.126,552.25 534.626,551.416 535,550.5C 535.333,550.833 535.667,551.167 536,551.5C 536.219,550.062 536.719,548.729 537.5,547.5C 536.939,549.066 537.606,550.399 539.5,551.5C 540.711,550.726 540.711,549.893 539.5,549C 542.489,546.728 543.822,547.561 543.5,551.5C 544.552,551.351 545.552,551.517 546.5,552C 545.396,553.131 545.729,553.965 547.5,554.5C 549.436,552.022 551.436,552.022 553.5,554.5C 551.47,554.894 549.137,555.227 546.5,555.5C 546.286,557.144 546.62,558.644 547.5,560C 546.975,560.692 546.308,561.192 545.5,561.5C 544.24,559.647 544.24,557.814 545.5,556C 544.299,555.097 543.465,553.931 543,552.5C 539.583,554.072 539.749,555.239 543.5,556C 543.018,557.008 542.852,558.175 543,559.5C 541.691,557.109 540.691,557.109 540,559.5C 538.796,558.529 538.296,557.529 538.5,556.5C 536.39,556.294 534.39,557.127 532.5,559C 533.421,560.756 534.588,560.923 536,559.5C 537.526,561.35 539.359,562.85 541.5,564C 540.551,564.617 539.718,564.451 539,563.5C 538,564.833 537,566.167 536,567.5C 535.252,565.668 534.252,564.001 533,562.5C 533.57,564.693 533.236,566.693 532,568.5C 531.751,567.376 531.251,566.376 530.5,565.5C 529.889,567.307 530.556,568.973 532.5,570.5C 532.167,570.833 531.833,571.167 531.5,571.5C 529.415,570.353 527.915,571.02 527,573.5C 525.215,572.76 523.382,572.093 521.5,571.5C 520.429,573.325 521.096,574.492 523.5,575C 522.151,576.635 522.318,578.135 524,579.5C 525.137,578.636 526.47,577.636 528,576.5C 527.968,578.598 527.301,580.598 526,582.5C 523.953,582.248 521.953,581.248 520,579.5C 519.167,579.667 518.333,579.833 517.5,580C 518.636,581.53 519.636,582.863 520.5,584C 519.809,585.067 519.309,586.234 519,587.5C 518.667,586.5 518.333,585.5 518,584.5C 516,585.833 514,585.833 512,584.5C 511.251,585.635 511.417,586.635 512.5,587.5C 513.086,587.291 513.586,586.957 514,586.5C 516.53,588.373 519.03,590.207 521.5,592C 521.272,592.399 520.938,592.565 520.5,592.5C 506.833,592.5 493.167,592.5 479.5,592.5C 478.508,592.328 477.842,592.662 477.5,593.5C 475.225,594.111 473.559,595.445 472.5,597.5C 472.565,597.062 472.399,596.728 472,596.5C 471.667,597.167 471.333,597.833 471,598.5C 470.333,620.833 470.333,643.167 471,665.5C 476.333,668.881 481.833,670.881 487.5,671.5C 499.266,677.049 511.266,682.049 523.5,686.5C 524.117,686.611 524.617,686.944 525,687.5C 525.5,658.169 525.667,628.835 525.5,599.5C 526.167,628.833 526.833,658.167 527.5,687.5C 528.331,672.005 528.831,656.339 529,640.5C 531.21,639.251 533.376,639.418 535.5,641C 536.167,643 537.5,644.333 539.5,645C 538.572,645.388 537.905,646.055 537.5,647C 538.01,648.826 538.844,648.993 540,647.5C 540.251,649.433 540.751,651.266 541.5,653C 540.216,653.684 539.049,653.517 538,652.5C 537.5,653 537,653.5 536.5,654C 538.715,655.943 538.715,657.609 536.5,659C 537.362,661.734 538.195,661.901 539,659.5C 539.667,660.833 540.333,660.833 541,659.5C 541.333,660.5 541.667,661.5 542,662.5C 542.219,661.062 542.719,659.729 543.5,658.5C 544.141,660.296 545.141,661.796 546.5,663C 545.449,664.385 544.116,665.385 542.5,666C 542.888,667.808 542.888,669.475 542.5,671C 543.833,671.667 544.833,672.667 545.5,674C 543.789,675.133 543.289,676.633 544,678.5C 544.333,678.167 544.667,677.833 545,677.5C 545.249,678.624 545.749,679.624 546.5,680.5C 548.854,681.06 551.187,681.727 553.5,682.5C 553.167,683.5 552.5,684.167 551.5,684.5C 549.755,684.524 547.921,684.19 546,683.5C 541.368,685.138 541.368,686.804 546,688.5C 548.799,687.763 548.966,686.93 546.5,686C 549.109,686.528 551.775,686.195 554.5,685C 555.126,684.25 555.626,683.416 556,682.5C 557.401,684.146 557.568,685.813 556.5,687.5C 555.232,686.572 553.899,686.405 552.5,687C 554.381,688.102 556.048,689.435 557.5,691C 558.452,692.3 558.452,693.467 557.5,694.5C 556.749,693.624 556.249,692.624 556,691.5C 555.692,692.308 555.192,692.975 554.5,693.5C 553.167,692.833 551.833,692.167 550.5,691.5C 550.167,692.167 549.833,692.833 549.5,693.5C 548.536,690.917 547.202,690.417 545.5,692C 547.414,693.413 548.747,695.247 549.5,697.5C 548.109,697.109 547.109,697.942 546.5,700C 547.833,700 549.167,700 550.5,700C 550.167,700.333 549.833,700.667 549.5,701C 552.019,702.957 552.019,704.291 549.5,705C 548.809,703.933 548.309,702.766 548,701.5C 544.493,704.799 544.993,707.133 549.5,708.5C 549.5,709.833 549.5,711.167 549.5,712.5C 569.34,715.956 589.34,718.122 609.5,719C 605.514,719.499 601.514,719.666 597.5,719.5C 525.374,716.134 461.041,692.467 404.5,648.5C 394.562,639.063 384.728,629.396 375,619.5C 367.145,610.491 360.311,600.824 354.5,590.5C 349.86,581.22 345.193,571.886 340.5,562.5C 340.667,562.167 340.833,561.833 341,561.5C 343.387,564.957 346.22,567.957 349.5,570.5C 364.574,587.243 380.908,602.576 398.5,616.5C 399.458,616.953 400.292,617.619 401,618.5C 401.399,618.272 401.565,617.938 401.5,617.5C 402.117,617.611 402.617,617.944 403,618.5C 403.667,604.167 403.667,589.833 403,575.5C 401.73,571.23 398.896,568.73 394.5,568C 387.394,567.926 380.394,567.26 373.5,566C 369.664,561.124 369.998,556.457 374.5,552C 374.272,551.601 373.938,551.435 373.5,551.5C 406.474,520.194 439.474,488.861 472.5,457.5 Z"/></g>
<g><path style="opacity:1" fill="#0d0d1c" d="M 349.5,570.5 C 346.22,567.957 343.387,564.957 341,561.5C 340.833,561.833 340.667,562.167 340.5,562.5C 345.193,571.886 349.86,581.22 354.5,590.5C 346.889,578.948 340.556,566.615 335.5,553.5C 335.846,552.304 336.346,552.304 337,553.5C 341.409,559.063 345.576,564.729 349.5,570.5 Z"/></g>
<g><path style="opacity:1" fill="#fbe81e" d="M 396.5,570.5 C 398.752,570.916 400.252,572.249 401,574.5C 401.5,588.829 401.667,603.163 401.5,617.5C 401.565,617.938 401.399,618.272 401,618.5C 400.292,617.619 399.458,616.953 398.5,616.5C 399.796,609.736 400.463,602.736 400.5,595.5C 400.333,588.833 400.167,582.167 400,575.5C 399.167,573.333 397.667,571.833 395.5,571C 395.728,570.601 396.062,570.435 396.5,570.5 Z"/></g>
<g><path style="opacity:1" fill="#fce61e" d="M 477.5,593.5 C 477.938,593.435 478.272,593.601 478.5,594C 476.333,594.833 474.833,596.333 474,598.5C 473.167,620.508 473.334,642.508 474.5,664.5C 479.151,665.963 482.817,667.963 485.5,670.5C 481.521,668.846 477.521,667.179 473.5,665.5C 472.5,642.843 472.167,620.176 472.5,597.5C 473.559,595.445 475.225,594.111 477.5,593.5 Z"/></g>
<g><path style="opacity:1" fill="#090e1c" d="M 472.5,597.5 C 472.167,620.176 472.5,642.843 473.5,665.5C 477.521,667.179 481.521,668.846 485.5,670.5C 485.842,671.338 486.508,671.672 487.5,671.5C 481.833,670.881 476.333,668.881 471,665.5C 470.333,643.167 470.333,620.833 471,598.5C 471.333,597.833 471.667,597.167 472,596.5C 472.399,596.728 472.565,597.062 472.5,597.5 Z"/></g>
<g><path style="opacity:1" fill="#fed722" d="M 598.5,572.5 C 598.833,572.5 599.167,572.5 599.5,572.5C 598.846,608.961 598.179,645.294 597.5,681.5C 597.5,646.167 597.5,610.833 597.5,575.5C 597.557,574.391 597.89,573.391 598.5,572.5 Z"/></g>
<g><path style="opacity:1" fill="#b88b20" d="M 597.5,575.5 C 597.5,610.833 597.5,646.167 597.5,681.5C 597.216,683.415 597.549,685.081 598.5,686.5C 598.068,687.71 597.401,688.71 596.5,689.5C 596.168,651.33 596.501,613.33 597.5,575.5 Z"/></g>
<g><path style="opacity:1" fill="#00051c" d="M 527.5,687.5 C 526.833,658.167 526.167,628.833 525.5,599.5C 525.385,597.053 524.385,595.053 522.5,593.5C 522.435,593.062 522.601,592.728 523,592.5C 525.148,593.977 526.482,595.977 527,598.5C 527.5,628.165 527.667,657.831 527.5,687.5 Z"/></g>
<g><path style="opacity:1" fill="#e6a81d" d="M 477.5,593.5 C 477.842,592.662 478.508,592.328 479.5,592.5C 492.66,593.331 505.994,593.831 519.5,594C 521.667,594.833 523.167,596.333 524,598.5C 524.824,627.905 524.658,657.239 523.5,686.5C 511.266,682.049 499.266,677.049 487.5,671.5C 486.508,671.672 485.842,671.338 485.5,670.5C 482.817,667.963 479.151,665.963 474.5,664.5C 473.334,642.508 473.167,620.508 474,598.5C 474.833,596.333 476.333,594.833 478.5,594C 478.272,593.601 477.938,593.435 477.5,593.5 Z"/></g>
<g><path style="opacity:0.008" fill="#d59f2c" d="M 614.5,648.5 C 615.833,649.167 615.833,649.167 614.5,648.5 Z"/></g>
<g><path style="opacity:0.016" fill="#e3b136" d="M 661.5,648.5 C 662.833,649.167 662.833,649.167 661.5,648.5 Z"/></g>
<g><path style="opacity:1" fill="#000019" d="M 598.5,572.5 C 597.89,573.391 597.557,574.391 597.5,575.5C 596.501,613.33 596.168,651.33 596.5,689.5C 595.336,651.336 595.169,613.002 596,574.5C 596.419,573.328 597.085,572.328 598,571.5C 598.399,571.728 598.565,572.062 598.5,572.5 Z"/></g>
<g><path style="opacity:1" fill="#fce81d" d="M 479.5,592.5 C 493.167,592.5 506.833,592.5 520.5,592.5C 520.842,593.338 521.508,593.672 522.5,593.5C 524.385,595.053 525.385,597.053 525.5,599.5C 525.667,628.835 525.5,658.169 525,687.5C 524.617,686.944 524.117,686.611 523.5,686.5C 524.658,657.239 524.824,627.905 524,598.5C 523.167,596.333 521.667,594.833 519.5,594C 505.994,593.831 492.66,593.331 479.5,592.5 Z"/></g>
<g><path style="opacity:0.004" fill="#d9b969" d="M 881.5,664.5 C 882.833,665.167 882.833,665.167 881.5,664.5 Z"/></g>
<g><path style="opacity:0.012" fill="#dcb666" d="M 881.5,665.5 C 880.833,666.167 880.833,666.167 881.5,665.5 Z"/></g>
<g><path style="opacity:0.004" fill="#d5b372" d="M 884.5,669.5 C 885.833,670.167 885.833,670.167 884.5,669.5 Z"/></g>
<g><path style="opacity:0.004" fill="#9b7927" d="M 605.5,672.5 C 606.833,673.167 606.833,673.167 605.5,672.5 Z"/></g>
<g><path style="opacity:1" fill="#0c121a" d="M 672.5,712.5 C 681.167,712.5 689.833,712.5 698.5,712.5C 700.199,712.34 701.866,712.506 703.5,713C 691.867,714.829 680.2,716.329 668.5,717.5C 670.294,716.008 673.627,715.175 678.5,715C 670.543,713.891 662.543,713.224 654.5,713C 660.491,712.501 666.491,712.334 672.5,712.5 Z"/></g>
<g><path style="opacity:0.008" fill="#eabb4a" d="M 761.5,723.5 C 762.833,724.167 762.833,724.167 761.5,723.5 Z"/></g>
<g><path style="opacity:0.004" fill="#e8ba55" d="M 392.5,731.5 C 393.833,732.167 393.833,732.167 392.5,731.5 Z"/></g>
<g><path style="opacity:0.004" fill="#e6bb53" d="M 397.5,732.5 C 398.833,733.167 398.833,733.167 397.5,732.5 Z"/></g>
<g><path style="opacity:0.008" fill="#e5b749" d="M 715.5,732.5 C 716.833,733.167 716.833,733.167 715.5,732.5 Z"/></g>
</svg>
