<svg width="50" height="50" viewBox="0 0 50 50" fill="none" xmlns="http://www.w3.org/2000/svg">
<path d="M41.6667 8.33337H8.33341C6.02091 8.33337 4.18758 10.1875 4.18758 12.5L4.16675 37.5C4.16675 39.8125 6.02091 41.6667 8.33341 41.6667H41.6667C43.9792 41.6667 45.8334 39.8125 45.8334 37.5V12.5C45.8334 10.1875 43.9792 8.33337 41.6667 8.33337ZM25.0001 20.8334H16.6667V22.9167H22.9167C24.0626 22.9167 25.0001 23.8542 25.0001 25V31.25C25.0001 32.3959 24.0626 33.3334 22.9167 33.3334H20.8334V35.4167H16.6667V33.3334H12.5001V29.1667H20.8334V27.0834H14.5834C13.4376 27.0834 12.5001 26.1459 12.5001 25V18.75C12.5001 17.6042 13.4376 16.6667 14.5834 16.6667H16.6667V14.5834H20.8334V16.6667H25.0001V20.8334ZM33.3334 33.8542L29.1667 29.6875H37.5001L33.3334 33.8542ZM29.1667 20.8334L33.3334 16.6667L37.5001 20.8334H29.1667Z" fill="black"/>
</svg>
