<svg width="23" height="23" viewBox="0 0 23 23" fill="none" xmlns="http://www.w3.org/2000/svg">
<path d="M9.66665 19C11.7375 18.9996 13.7486 18.3063 15.3798 17.0307L20.5085 22.1593L22.1581 20.5097L17.0295 15.381C18.3058 13.7496 18.9995 11.738 19 9.66668C19 4.52051 14.8128 0.333344 9.66665 0.333344C4.52048 0.333344 0.333313 4.52051 0.333313 9.66668C0.333313 14.8128 4.52048 19 9.66665 19ZM9.66665 2.66668C13.5271 2.66668 16.6666 5.80618 16.6666 9.66668C16.6666 13.5272 13.5271 16.6667 9.66665 16.6667C5.80615 16.6667 2.66665 13.5272 2.66665 9.66668C2.66665 5.80618 5.80615 2.66668 9.66665 2.66668Z" fill="white"/>
</svg>
